<?xml version="1.0" encoding="utf-8"?>
<!-- Generator: Adobe Illustrator 16.0.0, SVG Export Plug-In . SVG Version: 6.00 Build 0)  -->
<!DOCTYPE svg PUBLIC "-//W3C//DTD SVG 1.1//EN" "http://www.w3.org/Graphics/SVG/1.1/DTD/svg11.dtd">
<svg version="1.1" id="Layer_1" xmlns="http://www.w3.org/2000/svg" xmlns:xlink="http://www.w3.org/1999/xlink" x="0px" y="0px"
	 width="101px" height="50px" viewBox="-13 12.5 101 50" enable-background="new -13 12.5 101 50" xml:space="preserve">
<path d="M-8.165,40.859c3.425,1.661,14.46,7.849,29.727,8.448c15.267,0.601,31.175-5.457,35.549-7.852
	c4.376-2.394,13.305-8.36,18.806-13.688c0,0-10.321,12.753-29.06,19.173c0,0-19.048,6.857-37.477,2.749
	c0,0-17.819-4.93-19.548-6.368C-11.895,41.884-11.588,39.2-8.165,40.859z M86.174,21.825c-0.444-4.152,1.483-14.093-6.526-6.081
	c-8.008,8.009-14.535,14.388-24.918,18.394c-4.785,1.846-11.208,3.721-17.482,5.137l-5.42,4.062l3.836-3.714
	c-6.771,1.447-13.193,2.301-16.978,1.932c-6.318-0.623-10.511,2.425-12.004,4.25c4.506,1.324,9.675,2.409,14.915,2.613
	c0.691,0.029,1.4,0.041,2.11,0.041c14.03,0,28.521-5.344,32.978-7.782c4.291-2.347,13.833-8.469,19.235-13.53
	c4.377-4.103,0.16,0.973-0.961,2.299c-1.127,1.326-11.145,12.718-27.811,18.339c-0.103,0.034-11.57,4.106-25.166,4.106
	c-4.523,0-8.828-0.448-12.792-1.332l-0.025-0.007C8.99,50.51,7.614,50.16,5.627,49.615c0.939,2.394,4.123,9.045,11.13,11.22
	c8.602,2.672,18.245,1.038,22.398,0c0,0-8.753,0.151-15.427-4.597c0,0,13.794,4.3,22.396,2.523c8.604-1.785,17.8-6.23,25.066-12.017
	c0,0-10.828,2.078-14.83,0c0,0,14.682-0.445,19.208-4.006C80.095,39.18,86.619,25.977,86.174,21.825z"/>
</svg>
