<?xml version="1.0" encoding="utf-8"?>
<!-- Generator: Adobe Illustrator 16.0.0, SVG Export Plug-In . SVG Version: 6.00 Build 0)  -->
<!DOCTYPE svg PUBLIC "-//W3C//DTD SVG 1.1//EN" "http://www.w3.org/Graphics/SVG/1.1/DTD/svg11.dtd">
<svg version="1.1" id="Layer_1" xmlns="http://www.w3.org/2000/svg" xmlns:xlink="http://www.w3.org/1999/xlink" x="0px" y="0px"
	 width="61px" height="70px" viewBox="19.5 15 61 70" enable-background="new 19.5 15 61 70" xml:space="preserve">
<g>
	<path d="M78.768,48.361c0.157-0.465,0.219-0.946,0.259-1.354c0.099-1.031,0.164-2.219-0.103-3.217
		c-0.123-0.455-0.301-0.862-0.477-1.261c-0.153-0.351-0.299-0.684-0.383-1.005c-0.299-1.156-0.588-2.063-0.906-2.856
		c-0.136-0.339-0.265-0.703-0.391-1.06c-0.316-0.889-0.643-1.808-1.15-2.626c-0.453-0.733-0.792-1.588-1.073-2.332
		c-0.512-1.35-1.171-2.473-1.746-3.393c-0.377-0.6-0.818-1.093-1.259-1.585c-0.12-0.133-0.24-0.268-0.36-0.406
		c-0.173-0.199-0.326-0.442-0.489-0.701c-0.124-0.198-0.253-0.402-0.401-0.605c-0.218-0.298-0.445-0.538-0.669-0.774
		c-0.107-0.113-0.215-0.227-0.32-0.348c-0.309-0.356-0.655-0.645-0.99-0.925c-0.332-0.278-0.646-0.541-0.862-0.822
		c-0.139-0.181-0.252-0.38-0.386-0.614c-0.258-0.456-0.55-0.971-1.104-1.401c-0.712-0.554-1.416-0.68-2.097-0.802
		c-0.128-0.022-0.257-0.046-0.391-0.073l-0.078-0.015c-0.298-0.06-0.457-0.107-0.54-0.142c-0.006-0.041-0.012-0.089-0.017-0.125
		c-0.024-0.212-0.058-0.504-0.19-0.795c-0.271-0.59-0.663-1.006-1.168-1.236c-0.55-0.25-1.055-0.274-1.502-0.296
		c-0.248-0.012-0.462-0.022-0.654-0.07c-0.193-0.048-0.388-0.225-0.632-0.449c-0.242-0.222-0.517-0.473-0.876-0.664
		c-0.562-0.299-1.132-0.439-1.789-0.439c-0.262,0-0.515,0.019-0.792,0.041c-0.128,0.01-0.262,0.021-0.401,0.028
		c-2.1,0.123-2.547,2.206-2.814,3.452c-0.058,0.267-0.111,0.519-0.173,0.738c-0.285,1.022-0.612,2.559-0.658,3.517l-0.026,0.548
		c-0.039,0.852-0.072,1.588-0.17,2.507c-0.159,1.58-0.272,3.279-0.016,5.004c0.096,0.64,0.082,1.304,0.068,2.013
		c-0.009,0.447-0.018,0.908-0.001,1.389c0.052,1.357-0.008,2.868-0.063,4.338c-0.042,1.095-0.086,2.227-0.086,3.313l-0.001,0.992
		c-0.004,1.79-0.007,3.639,0.077,5.459l0.011,0.237c0.053,1.262,0.124,2.892,1.292,3.81c-0.65,0.419-0.828,1.094-0.965,1.618
		l-0.009,0.031c-0.39,1.479-0.499,3.036-0.553,4.365c-0.005,0.098-0.012,0.202-0.017,0.308l-0.002,0.04
		c-0.033,0.576-0.069,1.229,0.053,1.816c0.067,0.335,0.181,0.592,0.271,0.799c0.127,0.289,0.142,0.333,0.099,0.485
		c-0.092,0.327-0.195,0.624-0.298,0.915c-0.289,0.827-0.588,1.681-0.478,2.921l0.169,1.885c0.094,1.029,0.188,2.062,0.277,3.109
		c0.012,0.141,0.025,0.339,0.042,0.575c0.081,1.212,0.216,3.239,0.609,4.343l0.098,0.197c0.021,0.03,0.055,0.119,0.083,0.196
		c0.058,0.147,0.128,0.333,0.249,0.527c0.074,0.119,0.15,0.223,0.248,0.353c0.042,0.056,0.083,0.11,0.12,0.168
		c0.209,0.323,0.349,0.734,0.364,1.072c0.008,0.14-0.065,0.378-0.134,0.61c-0.139,0.458-0.296,0.979-0.157,1.554
		c0.188,0.785,1.06,1.684,1.591,2.044c0.671,0.454,1.54,0.693,2.661,0.733c0.182,0.007,0.365,0.01,0.553,0.01
		c1.157,0,2.258-0.132,3.185-0.384c1.075-0.292,1.886-0.979,2.604-1.588c0.51-0.431,0.989-0.838,1.521-1.087
		c1.742-0.81,2.998-1.988,4.136-3.127c0.658-0.661,1.479-1.482,2.095-2.359c0.601-0.854,1.044-1.778,1.473-2.672l0.08-0.17
		c0.483-1.003,0.678-2.14,0.834-3.219c0.035-0.238,0.104-0.476,0.221-0.748c0.13-0.305,0.314-0.604,0.515-0.927
		c0.147-0.239,0.301-0.487,0.44-0.754c0.336-0.638,0.397-1.3,0.453-1.883l0.019-0.186c0.028-0.302,0.173-0.607,0.34-0.965
		c0.124-0.264,0.252-0.534,0.354-0.847c0.212-0.645,0.181-1.286,0.151-1.868c-0.009-0.174-0.018-0.348-0.018-0.521
		c0-0.596,0.036-0.894,0.255-1.204c0.228-0.324,0.495-0.635,0.779-0.963c0.219-0.252,0.444-0.514,0.66-0.792
		c0.842-1.087,0.812-2.135,0.672-3.018l-0.02-0.129c-0.031-0.176-0.071-0.415-0.056-0.551c0.02-0.021,0.047-0.047,0.081-0.079
		c0.075-0.073,0.17-0.165,0.268-0.286c0.577-0.707,0.754-1.698,0.511-2.867c-0.062-0.299-0.19-0.59-0.304-0.85
		c-0.086-0.197-0.248-0.565-0.237-0.664c0.015-0.032,0.083-0.114,0.134-0.177C78.441,48.971,78.645,48.724,78.768,48.361z
		 M77.983,46.907c-0.034,0.349-0.085,0.754-0.207,1.12c-0.062,0.179-0.173,0.314-0.293,0.458c-0.089,0.108-0.175,0.225-0.245,0.358
		c-0.013-0.027-0.025-0.056-0.038-0.082c-0.185-0.407-0.282-0.607-0.356-0.7c-0.084-0.104-0.161-0.215-0.24-0.325
		c-0.047-0.067-0.093-0.133-0.141-0.198c-0.26-0.35-0.451-0.628-0.544-1.012c-0.129-0.531-0.174-1.105-0.215-1.662
		c-0.047-0.592-0.094-1.205-0.241-1.792c-0.139-0.549-0.317-0.999-0.545-1.375c-0.162-0.263-0.386-0.469-0.604-0.667
		c-0.216-0.197-0.422-0.384-0.505-0.583c-0.073-0.178-0.087-0.378-0.102-0.588c-0.02-0.286-0.043-0.611-0.221-0.934
		c-0.263-0.478-0.537-0.605-0.855-0.752c-0.142-0.064-0.3-0.137-0.487-0.255c-0.121-0.077-0.283-0.041-0.36,0.082
		c-0.078,0.123-0.042,0.285,0.081,0.361c0.215,0.136,0.398,0.221,0.547,0.289c0.29,0.133,0.436,0.201,0.615,0.528
		c0.122,0.222,0.141,0.462,0.157,0.717c0.017,0.245,0.035,0.496,0.141,0.753c0.128,0.307,0.386,0.542,0.635,0.77
		c0.191,0.174,0.389,0.354,0.511,0.552c0.201,0.331,0.36,0.733,0.485,1.23c0.136,0.543,0.179,1.107,0.226,1.704
		c0.045,0.576,0.09,1.171,0.229,1.745c0.117,0.479,0.346,0.814,0.632,1.201c0.044,0.062,0.089,0.125,0.135,0.188
		c0.083,0.119,0.169,0.239,0.26,0.35c0.047,0.063,0.192,0.38,0.287,0.591c0.213,0.464,0.304,0.647,0.439,0.689
		c0.06,0.253,0.171,0.507,0.273,0.744c0.098,0.221,0.198,0.45,0.237,0.643c0.123,0.591,0.172,1.417-0.297,1.992
		c-0.06,0.074-0.126,0.138-0.189,0.2c-0.158,0.151-0.32,0.31-0.376,0.619c-0.055,0.306,0.002,0.639,0.05,0.931l0.02,0.123
		c0.127,0.8,0.097,1.481-0.466,2.208c-0.198,0.257-0.415,0.508-0.625,0.749c-0.3,0.348-0.585,0.677-0.843,1.044
		c-0.411,0.585-0.445,1.164-0.445,1.807c0,0.191,0.009,0.382,0.02,0.588c0.026,0.522,0.049,1.015-0.102,1.475
		c-0.082,0.251-0.196,0.493-0.307,0.73c-0.19,0.404-0.387,0.823-0.435,1.306l-0.018,0.188c-0.05,0.535-0.098,1.039-0.338,1.495
		c-0.123,0.237-0.266,0.467-0.408,0.697c-0.217,0.352-0.422,0.684-0.581,1.06c-0.153,0.357-0.247,0.679-0.295,1.008
		c-0.008,0.046-0.016,0.091-0.021,0.136c-0.062,0.031-0.112,0.087-0.133,0.159c-0.162,0.55-0.574,1.139-0.938,1.661
		c-0.09,0.128-0.177,0.252-0.259,0.373c-0.776,1.156-2.052,1.453-3.402,1.766c-0.14,0.033-0.229,0.174-0.194,0.314
		c0.027,0.122,0.136,0.202,0.254,0.202c0.021,0,0.04-0.002,0.061-0.006c1.389-0.324,2.826-0.656,3.717-1.985
		c0.08-0.117,0.166-0.24,0.253-0.364c0.104-0.147,0.21-0.302,0.315-0.459c-0.104,0.391-0.226,0.773-0.394,1.122l-0.081,0.17
		c-0.411,0.854-0.835,1.739-1.385,2.523c-0.564,0.803-1.35,1.588-1.979,2.22c-1.07,1.071-2.249,2.18-3.837,2.919
		c-0.659,0.306-1.19,0.759-1.757,1.239c-0.694,0.587-1.349,1.144-2.2,1.375c-0.838,0.228-1.845,0.347-2.91,0.347
		c-0.175,0-0.346-0.003-0.516-0.011c-0.918-0.032-1.609-0.213-2.11-0.553c-0.444-0.301-1.061-1.001-1.159-1.42
		c-0.071-0.301,0.031-0.646,0.142-1.011c0.093-0.314,0.192-0.642,0.176-0.96c-0.023-0.528-0.218-1.108-0.53-1.593
		c-0.051-0.077-0.107-0.151-0.176-0.242c-0.062-0.086-0.126-0.171-0.182-0.261c-0.068-0.108-0.114-0.23-0.16-0.351
		c-0.048-0.123-0.096-0.249-0.168-0.366l-0.017-0.031c-0.336-0.977-0.464-2.886-0.54-4.033c-0.018-0.242-0.03-0.448-0.043-0.594
		c-0.092-1.051-0.185-2.083-0.277-3.116l-0.171-1.883c-0.089-1.014,0.147-1.693,0.426-2.483c0.105-0.303,0.215-0.617,0.315-0.975
		c0.147-0.522,0.004-0.848-0.148-1.191c-0.078-0.178-0.159-0.361-0.206-0.586c-0.093-0.454-0.061-1.035-0.031-1.55l0.001-0.039
		c0.008-0.111,0.014-0.219,0.017-0.321c0.052-1.272,0.155-2.759,0.52-4.143l0.01-0.033c0.169-0.649,0.286-0.995,0.863-1.146
		c0.208-0.055,0.417-0.127,0.601-0.209l0.226-0.101c0.032,0.4,0.092,0.941,0.186,1.104c0.058,0.1,0.097,0.219,0.14,0.343
		c0.05,0.154,0.104,0.314,0.197,0.468c0.05,0.08,0.136,0.125,0.224,0.125c0.048,0,0.094-0.012,0.137-0.038
		c0.123-0.077,0.163-0.237,0.086-0.36c-0.062-0.103-0.104-0.229-0.148-0.36c-0.047-0.144-0.097-0.294-0.174-0.429
		c-0.049-0.116-0.112-0.701-0.141-1.079l0.64-0.287l-1.455-0.372c-1.438-0.368-1.597-1.584-1.674-3.396l-0.012-0.239
		c-0.08-1.797-0.077-3.634-0.074-5.411l0.002-0.994c0-1.067,0.043-2.189,0.084-3.281c0.05-1.245,0.095-2.521,0.077-3.727
		c0.623-0.055,1.159-0.375,1.672-0.698c0.424-0.268,0.823-0.52,1.264-0.619c0.328-0.075,0.549,0.029,0.66,0.306
		c0.151,0.377,0.022,0.978-0.376,1.217c-0.124,0.074-0.164,0.235-0.09,0.359c0.049,0.082,0.137,0.126,0.226,0.126
		c0.047,0,0.092-0.013,0.134-0.037c0.646-0.387,0.828-1.275,0.593-1.861c-0.206-0.513-0.688-0.752-1.262-0.622
		c-0.527,0.12-0.985,0.408-1.427,0.687c-0.471,0.295-0.919,0.564-1.403,0.618c-0.002-0.053-0.001-0.108-0.003-0.16
		c-0.017-0.45-0.008-0.896,0.001-1.334c0.014-0.67,0.021-1.308-0.055-1.957c0.229-0.133,0.443-0.354,0.671-0.592
		c0.336-0.354,0.718-0.755,1.044-0.69c0.13,0.027,0.306,0.139,0.475,0.249c0.198,0.127,0.4,0.259,0.626,0.329l0.232,0.073
		c0.363,0.116,0.736,0.235,1.11,0.286c0.241,0.032,0.475,0.031,0.701,0.029c0.274-0.001,0.529-0.003,0.775,0.055
		c0.439,0.104,0.827,0.302,1.238,0.512l0.191,0.098c1.001,0.506,1.657,1.011,2.128,1.64c0.368,0.495,1.499,2.232,0.528,3.829
		c-0.566,0.934-1.621,1.415-2.55,1.838c-0.21,0.096-0.417,0.19-0.61,0.285c-0.129,0.064-0.182,0.222-0.118,0.351
		c0.047,0.093,0.139,0.145,0.235,0.145c0.04,0,0.078-0.008,0.115-0.027c0.188-0.093,0.389-0.184,0.594-0.278
		c0.477-0.216,0.981-0.45,1.45-0.748c0.615,0.424,1.35,1.363,1.709,1.883c0.277,0.401,0.488,0.824,0.682,1.69
		c0.026,0.116,0.128,0.201,0.246,0.205c0.004,0,0.007,0,0.01,0c0.115,0,0.218-0.076,0.251-0.188c0.113-0.38,0.141-0.666,0.168-0.967
		c0.028-0.309,0.062-0.66,0.196-1.2c0.134-0.529,0.742-0.933,1.278-1.287c0.132-0.088,0.26-0.173,0.378-0.256
		c0.406-0.291,2.329-0.582,3.478-0.756c0.509-0.078,0.91-0.138,1.13-0.187c0.014-0.003,0.025-0.011,0.038-0.016
		c0.405-0.065,0.672-0.198,0.801-0.414c0.162-0.27,0.048-0.55,0-0.669l-0.012-0.03c-0.113-0.371-0.22-0.595-0.424-0.888
		c-0.229-0.326-0.688-0.866-1.34-1.053c-0.055-0.896-0.201-1.714-0.945-2.507c0.09-0.144,0.185-0.274,0.276-0.4
		c0.317-0.44,0.617-0.854,0.62-1.627c0.002-0.145-0.115-0.262-0.259-0.263c-0.002,0-0.002,0-0.002,0
		c-0.146,0-0.263,0.116-0.264,0.261c-0.001,0.604-0.231,0.92-0.521,1.321c-0.13,0.178-0.275,0.38-0.41,0.621
		c-0.001,0.003,0,0.006-0.001,0.01c-0.003,0.005-0.008,0.009-0.011,0.015c-0.207,0.487-0.99,1.973-1.253,2.414
		c-0.445,0.746-1.028,1.225-1.645,1.73c-0.251,0.205-0.509,0.417-0.771,0.655c-0.106,0.097-0.113,0.264-0.017,0.37
		c0.052,0.057,0.123,0.086,0.195,0.086c0.062,0,0.126-0.023,0.176-0.068c0.25-0.229,0.503-0.436,0.748-0.638
		c0.655-0.535,1.271-1.042,1.764-1.866c0.227-0.381,0.799-1.461,1.117-2.119c0.515,0.611,0.64,1.242,0.688,2.231
		c0.006,0.124,0.099,0.227,0.221,0.246c0.416,0.064,0.854,0.386,1.201,0.882c0.17,0.244,0.255,0.424,0.351,0.739
		c0.006,0.02,0.017,0.044,0.026,0.074c0.027,0.063,0.064,0.158,0.037,0.205c-0.013,0.022-0.1,0.132-0.529,0.183
		c-0.025,0.003-0.048,0.013-0.071,0.022c-0.221,0.043-0.58,0.098-0.997,0.161c-1.747,0.266-3.233,0.511-3.703,0.847
		c-0.112,0.081-0.236,0.162-0.363,0.247c-0.615,0.407-1.312,0.87-1.495,1.596c-0.114,0.454-0.16,0.779-0.189,1.057
		c-0.115-0.274-0.254-0.518-0.427-0.768c-0.099-0.145-0.896-1.283-1.688-1.903c0.337-0.268,0.642-0.585,0.88-0.978
		c0.77-1.267,0.561-2.917-0.557-4.415c-0.668-0.894-1.586-1.428-2.31-1.795l-0.19-0.096c-0.44-0.225-0.854-0.438-1.356-0.557
		c-0.307-0.073-0.608-0.071-0.899-0.068c-0.216,0.001-0.423,0.003-0.627-0.025c-0.33-0.045-0.68-0.156-1.021-0.266l-0.237-0.076
		c-0.156-0.048-0.33-0.16-0.497-0.269c-0.209-0.135-0.426-0.275-0.653-0.321c-0.608-0.125-1.098,0.389-1.528,0.843
		c-0.124,0.131-0.241,0.247-0.354,0.347c-0.114-0.985-0.114-1.97-0.055-2.929c0.037-0.021,0.069-0.05,0.094-0.089
		c0.31-0.507,0.835-0.915,1.401-1.087c0.303-0.093,0.629-0.09,0.997,0.004c0.11,0.029,0.234,0.089,0.363,0.152
		c0.237,0.115,0.504,0.246,0.8,0.229c0.145-0.008,0.257-0.13,0.249-0.275c-0.01-0.144-0.136-0.259-0.275-0.248
		c-0.168,0.009-0.347-0.083-0.545-0.179c-0.147-0.071-0.3-0.145-0.46-0.188c-0.465-0.119-0.883-0.118-1.282,0.002
		c-0.475,0.144-0.918,0.43-1.276,0.792c0.017-0.183,0.031-0.369,0.049-0.549c0.051-0.492,0.085-0.931,0.111-1.361
		c0.014-0.008,0.031-0.005,0.044-0.016l0.248-0.199c0.5-0.402,1.186-0.953,1.666-1.167c0.344-0.152,0.743-0.285,1.156-0.384
		c0.305-0.073,0.305-0.073,1.023-0.217c0.143-0.028,0.234-0.166,0.206-0.307c-0.027-0.142-0.164-0.234-0.308-0.206
		C55.45,23.2,55.45,23.2,55.135,23.276c-0.443,0.105-0.875,0.25-1.247,0.415c-0.521,0.23-1.193,0.764-1.709,1.178
		c0.009-0.172,0.017-0.345,0.025-0.524l0.025-0.546c0.043-0.879,0.351-2.32,0.62-3.288c0.07-0.248,0.127-0.515,0.188-0.801
		c0.31-1.443,0.645-2.554,1.852-2.623c0.146-0.009,0.286-0.02,0.435-0.032c0.244-0.019,0.477-0.037,0.697-0.037
		c0.492,0,0.881,0.095,1.3,0.317c0.24,0.128,0.444,0.314,0.659,0.512c0.312,0.286,0.635,0.58,1.086,0.693
		c0.293,0.072,0.579,0.086,0.859,0.1c0.385,0.018,0.75,0.036,1.118,0.204c0.267,0.122,0.484,0.364,0.646,0.717
		c0.065,0.143,0.086,0.316,0.106,0.484c0.018,0.169,0.04,0.344,0.106,0.496c0.186,0.422,0.736,0.564,1.282,0.674l0.076,0.017
		c0.142,0.028,0.279,0.053,0.415,0.078c0.606,0.109,1.129,0.202,1.64,0.599c0.388,0.301,0.604,0.684,0.837,1.093
		c0.138,0.244,0.28,0.495,0.464,0.734c0.286,0.371,0.643,0.67,1.02,0.986c0.303,0.253,0.617,0.517,0.873,0.81
		c0.114,0.132,0.233,0.256,0.353,0.383c0.198,0.208,0.402,0.424,0.581,0.668c0.127,0.174,0.244,0.363,0.36,0.546
		c0.184,0.293,0.358,0.57,0.584,0.83c0.123,0.143,0.248,0.281,0.385,0.433c0.397,0.445,0.81,0.904,1.137,1.428
		c0.551,0.877,1.175,1.944,1.655,3.208c0.299,0.789,0.66,1.699,1.162,2.511c0.449,0.725,0.756,1.589,1.057,2.429
		c0.127,0.362,0.26,0.736,0.404,1.095c0.3,0.751,0.575,1.618,0.863,2.73c0.105,0.403,0.274,0.789,0.44,1.167
		c0.157,0.358,0.319,0.729,0.421,1.107C78.135,44.899,78.073,45.969,77.983,46.907z"/>
	<path d="M55.367,66.69c-0.142-0.029-0.28,0.062-0.31,0.203c-0.09,0.428,0.054,0.887,0.403,1.289
		c0.398,0.459,0.976,0.744,1.495,0.744c0.031,0,0.061,0,0.091-0.002c0.143-0.01,0.253-0.135,0.244-0.279
		c-0.01-0.143-0.13-0.249-0.278-0.243c-0.377,0.025-0.843-0.201-1.155-0.561c-0.238-0.274-0.342-0.58-0.288-0.84
		C55.599,66.859,55.509,66.721,55.367,66.69z"/>
	<path d="M54.732,65.04c0.102,0,0.194-0.058,0.236-0.149c0.112-0.238,0.219-0.489,0.326-0.743c0.289-0.68,0.586-1.384,1.056-1.952
		c0.561-0.68,0.872-1.332,1.201-2.023c0.011-0.021,0.021-0.044,0.031-0.066c0.325,0.319,0.783,0.687,1.432,0.966
		c0.033,0.015,0.068,0.022,0.104,0.022c0.102,0,0.197-0.06,0.24-0.159c0.057-0.134-0.004-0.288-0.138-0.344
		c-0.658-0.283-1.099-0.675-1.393-0.985c0.051-0.103,0.103-0.205,0.158-0.312c0.201-0.372,0.511-0.666,0.839-0.976
		c0.363-0.341,0.736-0.692,0.973-1.172c0.548-1.099,0.091-1.909-0.312-2.621c-0.166-0.292-0.32-0.567-0.42-0.863
		c-0.046-0.136-0.194-0.211-0.332-0.166c-0.137,0.046-0.211,0.194-0.165,0.332c0.114,0.343,0.29,0.654,0.459,0.954
		c0.389,0.687,0.723,1.28,0.301,2.132c-0.197,0.396-0.521,0.699-0.863,1.023c-0.346,0.325-0.701,0.662-0.941,1.111
		c-0.166,0.312-0.31,0.611-0.447,0.899c-0.314,0.661-0.612,1.285-1.132,1.914c-0.519,0.627-0.831,1.367-1.133,2.082
		c-0.041,0.095-0.08,0.188-0.12,0.281c-0.133,0.012-0.236,0.123-0.238,0.259v0.035c-0.002,0.095-0.005,0.201,0.022,0.317
		c0.024,0.108,0.115,0.19,0.227,0.203C54.714,65.04,54.724,65.04,54.732,65.04z"/>
	<path d="M71.05,46.856c-0.239-0.56-0.76-1.591-1.569-2.228c-0.293-0.231-0.616-0.462-0.985-0.707l-0.066-0.045
		c-0.826-0.554-1.257-0.79-1.51-0.885c0.001-0.222-0.033-0.448-0.065-0.66c-0.029-0.2-0.059-0.388-0.055-0.538
		c0.005-0.145-0.108-0.266-0.252-0.271c-0.145-0.005-0.266,0.109-0.271,0.253c-0.007,0.199,0.026,0.411,0.061,0.634
		c0.051,0.331,0.103,0.672,0.009,0.902c-0.083,0.204-0.333,0.344-0.596,0.493c-0.134,0.075-0.271,0.151-0.392,0.242
		c-0.93,0.681-1.942,1.236-3.07,0.707c-0.466-0.218-0.831-0.604-1.218-1.012c-0.426-0.449-0.866-0.914-1.464-1.157
		c-0.521-0.211-1.031-0.311-1.524-0.407c-0.632-0.123-1.229-0.239-1.832-0.576c-0.118-0.065-0.26-0.14-0.417-0.222
		c-0.841-0.444-2.409-1.269-2.51-2.039c-0.019-0.144-0.151-0.244-0.293-0.226c-0.143,0.019-0.244,0.151-0.228,0.294
		c0.137,1.039,1.731,1.877,2.786,2.434c0.152,0.08,0.291,0.153,0.404,0.216c0.678,0.376,1.343,0.506,1.986,0.632
		c0.491,0.096,0.955,0.186,1.43,0.379c0.492,0.2,0.875,0.604,1.28,1.031c0.403,0.426,0.82,0.866,1.376,1.127
		c0.392,0.184,0.77,0.262,1.135,0.262c0.917,0,1.746-0.493,2.467-1.021c0.097-0.071,0.214-0.137,0.338-0.208
		c0.313-0.175,0.668-0.376,0.82-0.743c0.196,0.089,0.575,0.299,1.312,0.792l0.069,0.047c0.357,0.236,0.669,0.459,0.951,0.681
		c0.718,0.564,1.191,1.509,1.41,2.022c0.068,0.158,0.138,0.314,0.208,0.471c0.296,0.661,0.576,1.285,0.643,1.993
		c0.079,0.856,0.033,1.799-0.136,2.806c-0.023,0.143,0.072,0.277,0.215,0.301c0.015,0.003,0.03,0.003,0.044,0.003
		c0.125,0,0.236-0.089,0.258-0.218c0.176-1.051,0.224-2.04,0.141-2.94c-0.074-0.793-0.386-1.488-0.687-2.158
		C71.185,47.166,71.116,47.011,71.05,46.856z"/>
	<path d="M67.794,62.265c0.05-0.135-0.018-0.286-0.153-0.336c-0.135-0.051-0.286,0.018-0.337,0.153
		c-0.238,0.636-1.493,1.08-2.104,0.88c-0.136-0.047-0.284,0.028-0.33,0.166c-0.045,0.138,0.029,0.285,0.167,0.331
		c0.154,0.051,0.331,0.076,0.52,0.076c0.409,0,0.871-0.118,1.276-0.322c0.292,0.275,0.688,0.485,1.064,0.541
		c0.012,0.002,0.024,0.003,0.038,0.003c0.128,0,0.239-0.093,0.259-0.224c0.021-0.143-0.078-0.275-0.221-0.297
		c-0.232-0.035-0.487-0.154-0.689-0.314C67.514,62.735,67.7,62.516,67.794,62.265z"/>
	<path d="M58.089,74.263c-0.144-0.014-0.271,0.08-0.287,0.224c-0.022,0.046-0.163,0.136-0.24,0.185
		c-0.097,0.062-0.188,0.12-0.262,0.192c-0.25,0.249-0.435,0.554-0.506,0.834c-0.153,0.61,0.153,0.996,0.424,1.336
		c0.078,0.097,0.158,0.197,0.227,0.302c0.184,0.281,0.114,0.35-0.146,0.6c-0.107,0.103-0.228,0.22-0.326,0.367
		c-0.346,0.517-0.177,1.073-0.028,1.565c0.069,0.227,0.133,0.441,0.142,0.626c0.006,0.142,0.122,0.253,0.262,0.253
		c0.004,0,0.007,0,0.012,0c0.144-0.006,0.257-0.128,0.251-0.272c-0.011-0.252-0.088-0.509-0.163-0.758
		c-0.126-0.418-0.246-0.812-0.038-1.124c0.067-0.101,0.158-0.188,0.254-0.281c0.256-0.246,0.642-0.619,0.219-1.263
		c-0.08-0.124-0.169-0.234-0.254-0.342c-0.266-0.333-0.412-0.537-0.325-0.882c0.048-0.187,0.185-0.407,0.366-0.589
		c0.033-0.032,0.108-0.08,0.175-0.123c0.198-0.126,0.446-0.283,0.476-0.553C58.335,74.415,58.233,74.279,58.089,74.263z"/>
	<path d="M68.054,56.63c-0.031,0.003-0.102,0.005-0.188,0.007c-0.22,0.006-0.374,0.011-0.478,0.017
		c-0.398-0.405-0.811-0.811-1.247-1.188c-0.35-0.304-0.731-0.556-1.101-0.799c-0.117-0.078-0.236-0.154-0.353-0.234l-0.16-0.11
		c-0.46-0.32-0.934-0.639-1.264-0.777c-0.179-0.634-0.445-1.239-0.876-1.754c1.041-0.203,2.159-0.434,2.585-0.65
		c0.111-0.057,0.228-0.111,0.344-0.165c0.212-0.1,0.427-0.207,0.628-0.328c0.344,0.269,0.963,0.802,1.207,1.023
		c0.104,0.095,0.205,0.222,0.312,0.357c0.142,0.18,0.288,0.366,0.465,0.501c0.048,0.036,0.104,0.054,0.159,0.054
		c0.078,0,0.156-0.037,0.207-0.105c0.088-0.114,0.065-0.279-0.051-0.366c-0.124-0.094-0.242-0.246-0.369-0.406
		c-0.114-0.146-0.234-0.299-0.37-0.423c-0.202-0.182-0.741-0.648-1.119-0.954c0.208-0.186,0.399-0.395,0.573-0.588l0.087-0.096
		c0.323-0.354,0.563-0.753,0.799-1.14c0.115-0.189,0.23-0.38,0.355-0.564c0.081-0.119,0.05-0.283-0.07-0.364
		c-0.12-0.081-0.283-0.049-0.364,0.07c-0.129,0.191-0.249,0.389-0.368,0.586c-0.232,0.382-0.452,0.743-0.74,1.059l-0.087,0.097
		c-0.238,0.265-0.485,0.539-0.756,0.728c-0.207,0.144-0.468,0.266-0.72,0.383c-0.122,0.059-0.243,0.114-0.359,0.174
		c-0.41,0.209-1.853,0.488-2.547,0.621c-0.084,0.017-0.16,0.031-0.227,0.045c-0.276-0.264-0.568-0.508-0.854-0.743
		c-0.555-0.458-1.08-0.893-1.481-1.462c-0.23-0.327-0.384-0.703-0.531-1.067c-0.349-0.854-0.708-1.736-2.036-1.894
		c-1.235-0.146-1.927,0.753-2.539,1.546c-0.153,0.198-0.299,0.386-0.448,0.554c-0.095,0.108-0.085,0.274,0.022,0.37
		c0.107,0.096,0.272,0.087,0.368-0.021c0.162-0.183,0.32-0.385,0.472-0.583c0.578-0.749,1.124-1.458,2.063-1.346
		c1.021,0.121,1.282,0.761,1.612,1.571c0.158,0.391,0.323,0.794,0.586,1.17c0.442,0.626,1.02,1.103,1.577,1.564
		c0.417,0.344,0.809,0.668,1.15,1.051c0.821,0.921,1.016,2.284,1.186,3.488l0.057,0.39c0.035,0.237,0.074,0.475,0.112,0.712
		c0.197,1.214,0.402,2.47,0.148,3.688c-0.28,1.352-0.994,2.581-2.121,3.653l-0.202,0.189c-0.965,0.906-2.059,1.933-1.646,3.502
		c0.157,0.598,0.586,1.05,1.001,1.487c0.438,0.464,0.854,0.902,0.855,1.441c0.002,1.248-1.361,1.846-2.528,1.978
		c-0.697,0.079-1.304,0.021-2-0.09c-0.274-0.045-0.54-0.152-0.818-0.269c-0.343-0.142-0.697-0.288-1.087-0.314
		c-0.145-0.006-0.269,0.098-0.279,0.242s0.098,0.27,0.243,0.279c0.305,0.021,0.604,0.146,0.922,0.276
		c0.296,0.123,0.602,0.247,0.937,0.302c0.445,0.07,0.92,0.132,1.438,0.132c0.226,0,0.46-0.012,0.703-0.04
		c0.882-0.1,1.855-0.442,2.447-1.091c0.46,0.958,0.989,1.516,1.761,1.861c0.129,0.059,0.273,0.104,0.424,0.144
		c0.065,0.692,0.001,1.2-0.196,1.507c-0.196,0.307-0.61,0.478-0.903,0.58c-0.111,0.039-0.185,0.148-0.176,0.268
		c0.014,0.167,0.05,0.317,0.083,0.461c0.058,0.235,0.107,0.44,0.042,0.673c-0.097,0.354-0.456,0.853-0.6,0.882
		c-0.143,0.027-0.234,0.166-0.206,0.309c0.025,0.123,0.135,0.209,0.257,0.209c0.018,0,0.034,0,0.052-0.006
		c0.497-0.099,0.914-0.928,1.004-1.255c0.099-0.363,0.025-0.665-0.038-0.934c-0.017-0.064-0.029-0.126-0.042-0.188
		c0.336-0.135,0.733-0.349,0.969-0.715c0.248-0.389,0.345-0.946,0.29-1.695c0.093,0.009,0.185,0.016,0.278,0.016
		c0.436,0,0.87-0.093,1.221-0.311c0.121-0.077,0.158-0.239,0.083-0.361c-0.079-0.123-0.239-0.16-0.362-0.083
		c-0.526,0.331-1.413,0.271-1.966,0.024c-0.662-0.299-1.102-0.771-1.512-1.63c-0.036-0.075-0.106-0.122-0.182-0.14
		c0.168-0.293,0.266-0.632,0.265-1.024c-0.001-0.746-0.508-1.283-0.998-1.802c-0.388-0.407-0.75-0.792-0.875-1.261
		c-0.333-1.267,0.598-2.141,1.499-2.986l0.203-0.191c1.207-1.147,1.972-2.467,2.273-3.927c0.272-1.313,0.062-2.617-0.145-3.878
		c-0.039-0.237-0.076-0.471-0.111-0.704l-0.056-0.387c-0.057-0.403-0.116-0.823-0.201-1.243c0.283,0.171,0.606,0.396,0.803,0.531
		l0.165,0.112c0.118,0.08,0.238,0.159,0.357,0.237c0.356,0.234,0.723,0.476,1.046,0.756c0.637,0.554,1.23,1.17,1.806,1.766
		c0.164,0.172,0.327,0.341,0.494,0.512c0.609,0.624,0.885,1.349,1.13,2.316c0.275,1.077,0.364,2.394,0.23,3.438
		c-0.017,0.144,0.082,0.273,0.227,0.292c0.013,0.002,0.022,0.003,0.033,0.003c0.131,0,0.243-0.097,0.26-0.229
		c0.143-1.104,0.049-2.497-0.241-3.634c-0.269-1.051-0.572-1.845-1.264-2.552c-0.165-0.17-0.329-0.339-0.492-0.509
		c-0.033-0.034-0.066-0.069-0.1-0.104c0.091-0.002,0.166-0.005,0.198-0.007c1.396-0.071,2.497-0.367,3.364-0.903
		c0.464-0.289,0.963-0.722,1.48-1.285l0.158-0.17c0.398-0.426,0.946-1.009,1.1-1.558c0.038-0.139-0.043-0.284-0.182-0.322
		c-0.137-0.039-0.283,0.042-0.323,0.18c-0.118,0.427-0.615,0.955-0.978,1.342l-0.162,0.174c-0.485,0.529-0.945,0.931-1.369,1.194
		C70.378,56.294,69.358,56.565,68.054,56.63z"/>
	<path d="M63.44,70.926c0.046,0.034,0.1,0.049,0.151,0.049c0.082,0,0.163-0.039,0.214-0.111c0.44-0.622,1.034-1.929,0.463-2.875
		c-0.074-0.123-0.236-0.163-0.36-0.089c-0.124,0.076-0.164,0.237-0.088,0.361c0.4,0.663-0.046,1.739-0.442,2.301
		C63.295,70.68,63.323,70.843,63.44,70.926z"/>
	<path d="M66.72,68.21c-0.132,0.059-0.189,0.214-0.129,0.347c0.043,0.095,0.138,0.152,0.237,0.152c0.036,0,0.074-0.008,0.109-0.023
		c0.485-0.223,1.046-0.406,1.525-0.084c0.12,0.08,0.283,0.047,0.363-0.073s0.047-0.283-0.073-0.363
		C68.057,67.699,67.301,67.942,66.72,68.21z"/>
	<path d="M69.194,66.102c-0.134-0.055-0.287,0.008-0.343,0.143c-0.055,0.132,0.009,0.286,0.143,0.342
		c0.575,0.237,0.891,0.653,0.938,1.235c0.012,0.138,0.126,0.24,0.261,0.24c0.008,0,0.015,0,0.021,0
		c0.145-0.012,0.252-0.14,0.24-0.283C70.391,66.996,69.955,66.416,69.194,66.102z"/>
	<path d="M71.925,63.616c-0.131-0.062-0.288-0.007-0.35,0.123c-0.062,0.132-0.007,0.288,0.124,0.35
		c0.461,0.219,0.614,0.725,0.664,1.007c0.022,0.127,0.132,0.216,0.258,0.216c0.016,0,0.03-0.002,0.047-0.005
		c0.142-0.024,0.236-0.161,0.21-0.303C72.763,64.346,72.423,63.853,71.925,63.616z"/>
	<path d="M63.969,31.745c-0.22-0.287-0.427-0.558-0.582-0.846c-0.124-0.231-0.237-0.479-0.348-0.719
		c-0.105-0.229-0.214-0.464-0.331-0.688c-0.055-0.103-0.116-0.204-0.177-0.306c-0.168-0.28-0.326-0.544-0.343-0.826
		c-0.013-0.22,0.027-0.245,0.156-0.331c0.129-0.084,0.323-0.212,0.397-0.524c0.151-0.646-0.354-0.971-0.722-1.209
		c-0.202-0.131-0.411-0.266-0.425-0.39c-0.005-0.051,0.014-0.2,0.308-0.5c0.084-0.084,0.174-0.166,0.267-0.248
		c0.372-0.333,0.795-0.712,0.782-1.336c-0.012-0.648-0.478-1.107-0.915-1.488c-0.601-0.521-1.739-1.376-2.628-1.249
		c-0.369,0.054-0.664,0.256-0.854,0.586c-0.243,0.42-0.277,1.001-0.087,1.477c0.055,0.134,0.206,0.199,0.341,0.145
		c0.134-0.054,0.198-0.206,0.146-0.341c-0.129-0.322-0.108-0.742,0.052-1.021c0.109-0.188,0.27-0.299,0.478-0.329
		c0.49-0.07,1.317,0.349,2.208,1.125c0.385,0.333,0.729,0.669,0.737,1.102c0.007,0.384-0.279,0.641-0.61,0.937
		c-0.1,0.09-0.197,0.177-0.288,0.27c-0.343,0.346-0.488,0.64-0.457,0.924c0.042,0.372,0.371,0.585,0.661,0.771
		c0.392,0.253,0.557,0.391,0.496,0.649c-0.027,0.109-0.073,0.14-0.175,0.207c-0.17,0.111-0.423,0.278-0.391,0.799
		c0.023,0.41,0.231,0.757,0.415,1.063c0.057,0.095,0.111,0.188,0.162,0.282c0.111,0.211,0.212,0.43,0.318,0.663
		c0.114,0.248,0.231,0.503,0.364,0.748c0.174,0.326,0.403,0.626,0.626,0.917c0.284,0.373,0.553,0.723,0.704,1.11
		c0.041,0.103,0.14,0.167,0.243,0.167c0.032,0,0.063-0.006,0.095-0.018c0.135-0.053,0.202-0.204,0.15-0.34
		C64.567,32.527,64.263,32.128,63.969,31.745z"/>
	<path d="M70.016,40.856c0.503,0.211,0.874,0.667,1.019,1.253c0.03,0.119,0.136,0.199,0.254,0.199c0.021,0,0.042-0.002,0.063-0.008
		c0.14-0.034,0.226-0.176,0.191-0.316c-0.184-0.747-0.667-1.334-1.324-1.61c-0.135-0.056-0.288,0.007-0.343,0.14
		C69.819,40.646,69.884,40.799,70.016,40.856z"/>
	<path d="M58.681,19.731c0.109,0.034,0.246,0.098,0.285,0.201c0.035,0.096-0.002,0.246-0.105,0.413
		c-0.075,0.123-0.035,0.285,0.088,0.36c0.043,0.026,0.089,0.038,0.136,0.038c0.088,0,0.176-0.045,0.225-0.125
		c0.191-0.314,0.243-0.615,0.148-0.869c-0.09-0.241-0.297-0.415-0.616-0.518c-0.139-0.045-0.284,0.032-0.33,0.169
		C58.468,19.539,58.544,19.686,58.681,19.731z"/>
	<path d="M48.851,62.821c-0.043-0.154-0.029-0.197,0.099-0.486c0.091-0.206,0.203-0.463,0.272-0.797
		c0.12-0.59,0.084-1.241,0.053-1.819l-0.002-0.039c-0.005-0.106-0.012-0.209-0.016-0.308c-0.055-1.329-0.164-2.887-0.554-4.365
		l-0.008-0.032c-0.137-0.523-0.314-1.198-0.963-1.618c1.166-0.917,1.238-2.546,1.292-3.809l0.011-0.238
		c0.082-1.82,0.079-3.669,0.076-5.459l0-0.992c0-1.087-0.043-2.218-0.085-3.313c-0.057-1.47-0.115-2.982-0.064-4.338
		c0.018-0.481,0.009-0.942,0-1.389c-0.014-0.708-0.027-1.374,0.069-2.013c0.256-1.725,0.144-3.424-0.016-5.004
		c-0.095-0.919-0.13-1.655-0.169-2.507l-0.026-0.548c-0.047-0.958-0.374-2.496-0.659-3.517c-0.061-0.219-0.115-0.471-0.173-0.738
		c-0.268-1.247-0.716-3.33-2.815-3.452c-0.14-0.008-0.273-0.019-0.4-0.028c-0.279-0.022-0.529-0.041-0.792-0.041
		c-0.658,0-1.227,0.14-1.79,0.439c-0.36,0.19-0.633,0.442-0.875,0.664c-0.246,0.225-0.438,0.401-0.632,0.449
		c-0.193,0.048-0.407,0.059-0.654,0.07c-0.448,0.022-0.953,0.047-1.503,0.296c-0.504,0.229-0.896,0.646-1.166,1.236
		c-0.133,0.292-0.167,0.583-0.191,0.795c-0.005,0.036-0.01,0.084-0.016,0.125c-0.083,0.034-0.242,0.081-0.541,0.142l-0.079,0.015
		c-0.133,0.028-0.262,0.051-0.39,0.073c-0.68,0.123-1.384,0.249-2.098,0.802c-0.554,0.429-0.846,0.945-1.102,1.401
		c-0.134,0.234-0.247,0.434-0.386,0.614c-0.215,0.282-0.53,0.544-0.862,0.822c-0.334,0.28-0.681,0.57-0.99,0.925
		c-0.106,0.12-0.213,0.234-0.32,0.348c-0.223,0.236-0.452,0.477-0.669,0.774c-0.148,0.203-0.277,0.408-0.401,0.605
		c-0.163,0.259-0.316,0.502-0.489,0.701c-0.12,0.139-0.24,0.273-0.359,0.406c-0.441,0.492-0.884,0.986-1.259,1.585
		c-0.577,0.92-1.235,2.042-1.747,3.394c-0.282,0.743-0.62,1.598-1.074,2.331c-0.507,0.818-0.835,1.738-1.15,2.626
		c-0.126,0.356-0.254,0.72-0.392,1.06c-0.317,0.793-0.606,1.7-0.905,2.856c-0.083,0.321-0.229,0.654-0.383,1.005
		c-0.175,0.398-0.354,0.806-0.475,1.261c-0.268,0.998-0.202,2.186-0.104,3.217c0.04,0.408,0.101,0.888,0.258,1.354
		c0.122,0.363,0.327,0.609,0.476,0.789c0.051,0.062,0.12,0.146,0.133,0.177c0.011,0.099-0.15,0.466-0.237,0.665
		c-0.113,0.259-0.241,0.551-0.304,0.85c-0.243,1.168-0.067,2.16,0.509,2.866c0.099,0.121,0.193,0.214,0.269,0.287
		c0.034,0.033,0.061,0.058,0.081,0.08c0.015,0.135-0.025,0.373-0.054,0.55l-0.022,0.129c-0.141,0.883-0.17,1.93,0.672,3.017
		c0.215,0.279,0.442,0.54,0.66,0.792c0.284,0.329,0.552,0.639,0.78,0.964c0.219,0.31,0.253,0.608,0.253,1.203
		c0,0.174-0.008,0.349-0.017,0.522c-0.029,0.581-0.062,1.223,0.15,1.869c0.103,0.312,0.23,0.583,0.354,0.845
		c0.167,0.357,0.311,0.663,0.342,0.965l0.017,0.187c0.055,0.583,0.117,1.244,0.454,1.882c0.141,0.27,0.293,0.515,0.441,0.755
		c0.199,0.322,0.383,0.622,0.513,0.926c0.116,0.273,0.187,0.511,0.222,0.749c0.156,1.078,0.349,2.215,0.833,3.219l0.082,0.171
		c0.428,0.893,0.872,1.816,1.472,2.671c0.617,0.877,1.437,1.698,2.095,2.359c1.138,1.138,2.394,2.317,4.136,3.127
		c0.532,0.248,1.012,0.655,1.521,1.087c0.718,0.608,1.529,1.296,2.605,1.587c0.926,0.253,2.027,0.385,3.183,0.385
		c0.187,0,0.372-0.003,0.554-0.011c1.12-0.039,1.991-0.278,2.661-0.732c0.531-0.36,1.403-1.26,1.59-2.044
		c0.138-0.575-0.018-1.096-0.156-1.555c-0.069-0.231-0.142-0.47-0.135-0.61c0.016-0.337,0.156-0.748,0.364-1.071
		c0.038-0.058,0.079-0.113,0.121-0.168c0.098-0.13,0.174-0.234,0.249-0.353c0.121-0.194,0.19-0.38,0.247-0.528
		c0.031-0.077,0.063-0.165,0.084-0.195l0.098-0.197c0.394-1.103,0.529-3.131,0.61-4.343c0.016-0.237,0.03-0.434,0.042-0.576
		c0.091-1.048,0.184-2.078,0.277-3.109l0.169-1.884c0.111-1.241-0.189-2.094-0.478-2.921C49.047,63.445,48.942,63.146,48.851,62.821
		z M48.583,66.563l-0.17,1.883c-0.093,1.031-0.187,2.064-0.277,3.115c-0.012,0.146-0.026,0.352-0.043,0.594
		c-0.076,1.147-0.204,3.058-0.541,4.034l-0.016,0.031c-0.072,0.118-0.121,0.243-0.167,0.366c-0.045,0.119-0.093,0.241-0.159,0.352
		c-0.057,0.088-0.12,0.174-0.183,0.26c-0.069,0.09-0.125,0.165-0.175,0.243c-0.313,0.483-0.507,1.063-0.533,1.591
		c-0.015,0.319,0.083,0.646,0.179,0.961c0.109,0.364,0.212,0.71,0.141,1.012c-0.1,0.418-0.715,1.117-1.159,1.418
		c-0.501,0.34-1.192,0.521-2.11,0.554c-0.17,0.007-0.342,0.01-0.517,0.01c-1.065,0-2.071-0.12-2.91-0.348
		c-0.851-0.231-1.505-0.786-2.199-1.375c-0.567-0.48-1.1-0.932-1.758-1.238c-1.587-0.74-2.766-1.847-3.835-2.92
		c-0.631-0.632-1.417-1.417-1.979-2.22c-0.551-0.783-0.976-1.668-1.385-2.523l-0.082-0.17c-0.168-0.349-0.29-0.73-0.394-1.122
		c0.105,0.157,0.212,0.312,0.316,0.46c0.088,0.125,0.173,0.247,0.252,0.365c0.893,1.328,2.329,1.661,3.718,1.983
		c0.02,0.006,0.039,0.008,0.06,0.008c0.118,0,0.226-0.081,0.253-0.204c0.033-0.141-0.055-0.282-0.195-0.314
		c-1.35-0.312-2.625-0.609-3.402-1.765c-0.08-0.121-0.168-0.246-0.257-0.373c-0.364-0.521-0.776-1.111-0.938-1.661
		c-0.021-0.072-0.071-0.127-0.133-0.158c-0.007-0.046-0.015-0.091-0.021-0.137c-0.048-0.331-0.142-0.649-0.295-1.009
		c-0.16-0.375-0.364-0.707-0.581-1.059c-0.143-0.231-0.286-0.461-0.41-0.697c-0.24-0.457-0.287-0.961-0.338-1.496l-0.018-0.188
		c-0.047-0.481-0.245-0.901-0.435-1.305c-0.111-0.237-0.225-0.48-0.307-0.732c-0.151-0.459-0.127-0.952-0.101-1.474
		c0.011-0.206,0.02-0.397,0.02-0.588c0-0.643-0.034-1.223-0.446-1.808c-0.258-0.367-0.542-0.695-0.843-1.044
		c-0.21-0.241-0.426-0.492-0.625-0.749c-0.563-0.727-0.593-1.407-0.466-2.207l0.021-0.124c0.049-0.292,0.105-0.624,0.049-0.931
		c-0.056-0.309-0.219-0.467-0.376-0.619c-0.063-0.062-0.129-0.127-0.189-0.2c-0.469-0.574-0.419-1.4-0.297-1.992
		c0.04-0.192,0.141-0.421,0.238-0.643c0.104-0.237,0.215-0.49,0.275-0.743c0.134-0.042,0.225-0.226,0.438-0.69
		c0.096-0.21,0.241-0.527,0.289-0.591c0.09-0.111,0.175-0.231,0.26-0.35c0.044-0.064,0.089-0.127,0.134-0.188
		c0.286-0.387,0.515-0.722,0.632-1.201c0.139-0.573,0.185-1.169,0.229-1.745c0.046-0.596,0.09-1.161,0.227-1.704
		c0.125-0.497,0.284-0.9,0.485-1.23c0.122-0.199,0.318-0.378,0.509-0.553c0.25-0.227,0.508-0.462,0.636-0.77
		c0.107-0.256,0.124-0.508,0.141-0.753c0.018-0.254,0.034-0.495,0.157-0.716c0.18-0.329,0.326-0.396,0.617-0.529
		c0.146-0.068,0.33-0.153,0.545-0.289c0.123-0.077,0.16-0.238,0.082-0.362c-0.078-0.123-0.239-0.158-0.361-0.081
		c-0.186,0.118-0.345,0.19-0.486,0.255c-0.318,0.146-0.593,0.273-0.856,0.752c-0.178,0.323-0.201,0.647-0.221,0.934
		c-0.014,0.21-0.028,0.41-0.101,0.588c-0.083,0.199-0.288,0.385-0.505,0.583c-0.218,0.198-0.443,0.404-0.604,0.667
		c-0.229,0.376-0.407,0.825-0.545,1.375c-0.148,0.586-0.195,1.199-0.241,1.791c-0.042,0.556-0.086,1.13-0.215,1.662
		c-0.094,0.385-0.285,0.663-0.543,1.012c-0.048,0.065-0.095,0.131-0.141,0.198c-0.078,0.11-0.156,0.22-0.242,0.325
		c-0.074,0.093-0.17,0.294-0.356,0.701c-0.012,0.025-0.025,0.054-0.038,0.081c-0.07-0.133-0.155-0.25-0.245-0.358
		c-0.12-0.145-0.231-0.279-0.292-0.458c-0.123-0.364-0.173-0.77-0.207-1.12c-0.09-0.937-0.152-2.008,0.071-2.844
		c0.101-0.378,0.265-0.749,0.42-1.107c0.166-0.377,0.336-0.763,0.44-1.167c0.289-1.113,0.563-1.979,0.865-2.73
		c0.144-0.359,0.276-0.733,0.404-1.095c0.298-0.84,0.606-1.705,1.055-2.429c0.502-0.812,0.863-1.723,1.163-2.512
		c0.479-1.265,1.105-2.332,1.654-3.208c0.329-0.523,0.74-0.982,1.139-1.428c0.136-0.152,0.261-0.29,0.384-0.433
		c0.226-0.26,0.399-0.537,0.584-0.83c0.116-0.183,0.234-0.372,0.361-0.546c0.178-0.244,0.382-0.459,0.579-0.668
		c0.12-0.127,0.238-0.25,0.353-0.383c0.256-0.294,0.57-0.557,0.874-0.81c0.378-0.317,0.734-0.614,1.019-0.986
		c0.185-0.239,0.327-0.49,0.465-0.733c0.232-0.41,0.449-0.793,0.836-1.094c0.511-0.396,1.033-0.49,1.641-0.599
		c0.135-0.024,0.272-0.049,0.414-0.078l0.077-0.016c0.547-0.11,1.097-0.252,1.282-0.674c0.067-0.152,0.087-0.327,0.107-0.496
		c0.021-0.167,0.04-0.341,0.106-0.483c0.161-0.354,0.379-0.595,0.646-0.717c0.368-0.167,0.732-0.185,1.118-0.204
		c0.28-0.014,0.566-0.027,0.858-0.1c0.451-0.112,0.774-0.408,1.086-0.693c0.215-0.197,0.418-0.383,0.66-0.512
		c0.417-0.223,0.806-0.317,1.298-0.317c0.222,0,0.454,0.018,0.699,0.037c0.146,0.012,0.286,0.023,0.433,0.032
		c1.208,0.07,1.541,1.18,1.852,2.624c0.062,0.285,0.119,0.553,0.189,0.801c0.27,0.966,0.578,2.408,0.62,3.288l0.026,0.545
		c0.008,0.179,0.017,0.352,0.025,0.524c-0.515-0.413-1.188-0.948-1.708-1.177c-0.373-0.166-0.805-0.31-1.249-0.416
		c-0.316-0.075-0.316-0.075-1.043-0.221c-0.144-0.028-0.28,0.063-0.308,0.206c-0.029,0.142,0.063,0.279,0.206,0.307
		c0.718,0.144,0.718,0.144,1.024,0.217c0.413,0.099,0.812,0.231,1.157,0.384c0.48,0.213,1.166,0.764,1.666,1.167l0.248,0.198
		c0.014,0.011,0.03,0.008,0.044,0.016c0.026,0.43,0.06,0.869,0.111,1.361c0.018,0.18,0.032,0.366,0.048,0.549
		c-0.357-0.362-0.8-0.649-1.276-0.793c-0.398-0.121-0.817-0.122-1.28-0.002c-0.161,0.042-0.314,0.116-0.462,0.188
		c-0.198,0.096-0.376,0.188-0.544,0.179c-0.141-0.012-0.268,0.103-0.275,0.248c-0.007,0.145,0.104,0.268,0.249,0.275
		c0.295,0.017,0.562-0.115,0.8-0.229c0.131-0.063,0.253-0.123,0.365-0.152c0.367-0.095,0.693-0.096,0.996-0.005
		c0.567,0.173,1.091,0.581,1.402,1.088c0.024,0.039,0.057,0.067,0.094,0.089c0.059,0.959,0.059,1.943-0.056,2.929
		c-0.112-0.1-0.229-0.216-0.353-0.347c-0.431-0.455-0.919-0.968-1.528-0.843c-0.228,0.046-0.445,0.186-0.654,0.321
		c-0.167,0.109-0.341,0.22-0.497,0.269l-0.237,0.075c-0.34,0.109-0.692,0.221-1.021,0.266c-0.205,0.029-0.412,0.026-0.627,0.025
		c-0.291-0.002-0.592-0.003-0.899,0.069c-0.503,0.118-0.917,0.331-1.357,0.557l-0.189,0.096c-0.724,0.366-1.643,0.901-2.31,1.795
		c-1.119,1.497-1.327,3.147-0.556,4.414c0.237,0.394,0.542,0.711,0.88,0.979c-0.792,0.619-1.589,1.757-1.689,1.902
		c-0.172,0.25-0.311,0.493-0.426,0.768c-0.029-0.277-0.075-0.604-0.188-1.057c-0.183-0.726-0.882-1.188-1.497-1.596
		c-0.126-0.084-0.25-0.165-0.364-0.247c-0.469-0.335-1.954-0.581-3.704-0.847c-0.417-0.063-0.775-0.118-0.997-0.161
		c-0.022-0.01-0.044-0.02-0.07-0.023c-0.43-0.049-0.516-0.16-0.529-0.183c-0.028-0.047,0.011-0.143,0.037-0.205
		c0.011-0.03,0.021-0.055,0.027-0.074c0.096-0.316,0.182-0.496,0.352-0.74c0.347-0.496,0.784-0.818,1.2-0.882
		c0.123-0.02,0.215-0.122,0.222-0.246c0.05-0.988,0.174-1.62,0.688-2.231c0.318,0.658,0.891,1.737,1.117,2.118
		c0.491,0.824,1.109,1.332,1.763,1.867c0.245,0.202,0.499,0.409,0.749,0.637c0.05,0.045,0.113,0.068,0.176,0.068
		c0.071,0,0.142-0.029,0.194-0.086c0.097-0.106,0.09-0.271-0.017-0.37c-0.262-0.238-0.521-0.451-0.771-0.656
		c-0.617-0.505-1.201-0.983-1.646-1.729c-0.262-0.441-1.045-1.928-1.253-2.415c-0.002-0.005-0.008-0.009-0.01-0.015
		c-0.001-0.003,0-0.006-0.001-0.01c-0.134-0.241-0.28-0.442-0.41-0.621c-0.29-0.401-0.52-0.717-0.521-1.321
		c0-0.145-0.117-0.262-0.262-0.262c0,0,0,0-0.001,0c-0.145,0.001-0.261,0.119-0.261,0.263c0.003,0.773,0.304,1.188,0.621,1.627
		c0.093,0.126,0.187,0.256,0.276,0.4c-0.744,0.793-0.89,1.611-0.945,2.508c-0.65,0.188-1.111,0.728-1.339,1.053
		c-0.205,0.292-0.311,0.516-0.423,0.888l-0.012,0.029c-0.048,0.12-0.161,0.399,0,0.669c0.128,0.216,0.396,0.349,0.802,0.414
		c0.013,0.005,0.023,0.014,0.037,0.016c0.219,0.049,0.621,0.109,1.13,0.187c1.148,0.174,3.072,0.465,3.479,0.755
		c0.119,0.084,0.247,0.169,0.378,0.256c0.537,0.354,1.144,0.757,1.277,1.287c0.136,0.54,0.167,0.891,0.196,1.2
		c0.028,0.301,0.054,0.587,0.168,0.966c0.033,0.111,0.136,0.188,0.251,0.188c0.003,0,0.006,0,0.009,0
		c0.119-0.005,0.22-0.089,0.246-0.205c0.194-0.867,0.407-1.29,0.683-1.69c0.358-0.52,1.094-1.459,1.708-1.883
		c0.469,0.299,0.974,0.531,1.45,0.747c0.207,0.094,0.406,0.186,0.594,0.278c0.038,0.019,0.077,0.027,0.116,0.027
		c0.097,0,0.19-0.053,0.234-0.145c0.064-0.13,0.012-0.287-0.118-0.351c-0.193-0.095-0.398-0.189-0.609-0.285
		c-0.931-0.425-1.984-0.904-2.551-1.838c-0.97-1.598,0.16-3.335,0.529-3.829c0.47-0.629,1.126-1.135,2.128-1.64l0.19-0.098
		c0.411-0.21,0.798-0.409,1.238-0.512c0.247-0.058,0.501-0.057,0.775-0.055c0.227,0.001,0.46,0.003,0.702-0.029
		c0.374-0.051,0.747-0.17,1.109-0.286l0.233-0.074c0.225-0.07,0.429-0.201,0.626-0.329c0.169-0.109,0.344-0.222,0.475-0.249
		c0.325-0.064,0.706,0.335,1.044,0.69c0.227,0.238,0.442,0.458,0.67,0.592c-0.076,0.648-0.068,1.287-0.054,1.957
		c0.009,0.438,0.017,0.884,0,1.334c-0.001,0.052-0.001,0.107-0.003,0.159c-0.485-0.053-0.934-0.322-1.402-0.617
		c-0.442-0.278-0.9-0.566-1.427-0.686c-0.575-0.13-1.057,0.109-1.262,0.622c-0.236,0.586-0.053,1.474,0.592,1.861
		c0.042,0.024,0.089,0.037,0.134,0.037c0.089,0,0.175-0.045,0.225-0.126c0.075-0.125,0.035-0.285-0.089-0.359
		c-0.398-0.239-0.527-0.84-0.376-1.216c0.111-0.277,0.332-0.38,0.66-0.306c0.44,0.099,0.84,0.351,1.264,0.618
		c0.514,0.324,1.048,0.644,1.671,0.698c-0.016,1.206,0.029,2.482,0.078,3.728c0.042,1.092,0.085,2.213,0.085,3.28l0.001,0.994
		c0.003,1.777,0.006,3.615-0.075,5.411l-0.011,0.239c-0.078,1.813-0.237,3.028-1.675,3.397l-1.454,0.372l0.64,0.286
		c-0.027,0.378-0.092,0.964-0.141,1.08c-0.078,0.135-0.127,0.285-0.175,0.429c-0.045,0.132-0.086,0.258-0.148,0.36
		c-0.076,0.122-0.037,0.283,0.086,0.359c0.043,0.026,0.09,0.039,0.137,0.039c0.088,0,0.174-0.045,0.223-0.125
		c0.094-0.154,0.146-0.313,0.198-0.469c0.042-0.123,0.081-0.242,0.139-0.342c0.092-0.163,0.152-0.705,0.185-1.104l0.226,0.101
		c0.184,0.081,0.391,0.154,0.6,0.208c0.578,0.151,0.694,0.497,0.863,1.147l0.009,0.033c0.363,1.383,0.467,2.87,0.521,4.143
		c0.004,0.103,0.01,0.21,0.016,0.32l0.002,0.04c0.028,0.515,0.061,1.096-0.033,1.551c-0.047,0.225-0.127,0.407-0.206,0.585
		c-0.152,0.345-0.295,0.67-0.148,1.192c0.1,0.355,0.21,0.67,0.316,0.975C48.435,64.869,48.674,65.549,48.583,66.563z"/>
	<path d="M42.988,68.401c-0.149-0.006-0.269,0.101-0.279,0.243c-0.009,0.145,0.1,0.27,0.245,0.278
		c0.029,0.003,0.06,0.003,0.09,0.003c0.52,0,1.098-0.284,1.496-0.744c0.35-0.403,0.494-0.862,0.404-1.29
		c-0.03-0.142-0.169-0.231-0.31-0.202c-0.142,0.029-0.232,0.169-0.203,0.31c0.054,0.262-0.051,0.565-0.288,0.84
		C43.83,68.201,43.364,68.426,42.988,68.401z"/>
	<path d="M45.306,64.225c-0.04-0.094-0.08-0.188-0.119-0.28c-0.304-0.717-0.617-1.457-1.134-2.083
		c-0.52-0.629-0.818-1.253-1.132-1.915c-0.138-0.287-0.28-0.586-0.447-0.898c-0.24-0.448-0.598-0.786-0.942-1.11
		c-0.343-0.324-0.666-0.629-0.863-1.023c-0.423-0.852-0.088-1.444,0.3-2.133c0.169-0.3,0.346-0.61,0.459-0.953
		c0.046-0.139-0.029-0.286-0.165-0.332c-0.139-0.047-0.286,0.028-0.332,0.165c-0.099,0.296-0.254,0.571-0.419,0.864
		c-0.403,0.712-0.86,1.521-0.314,2.62c0.239,0.479,0.612,0.831,0.973,1.172c0.33,0.31,0.64,0.604,0.84,0.978
		c0.057,0.105,0.107,0.207,0.159,0.311c-0.293,0.309-0.734,0.7-1.393,0.983c-0.133,0.058-0.194,0.212-0.138,0.344
		c0.042,0.1,0.14,0.159,0.241,0.159c0.035,0,0.07-0.008,0.104-0.021c0.647-0.28,1.106-0.648,1.43-0.966
		c0.011,0.021,0.022,0.045,0.033,0.066c0.329,0.691,0.64,1.344,1.201,2.023c0.469,0.568,0.767,1.271,1.056,1.952
		c0.107,0.253,0.212,0.503,0.326,0.741c0.043,0.094,0.136,0.151,0.237,0.151c0.009,0,0.019-0.001,0.028-0.003
		c0.111-0.012,0.202-0.094,0.227-0.202c0.026-0.117,0.024-0.223,0.022-0.316v-0.036C45.543,64.348,45.439,64.236,45.306,64.225z"/>
	<path d="M28.458,52.636c0.015,0,0.029-0.001,0.043-0.004c0.143-0.024,0.239-0.159,0.215-0.302
		c-0.168-1.005-0.214-1.948-0.136-2.804c0.066-0.707,0.347-1.331,0.643-1.993c0.07-0.157,0.141-0.313,0.208-0.471
		c0.219-0.513,0.693-1.457,1.411-2.022c0.283-0.222,0.593-0.444,0.95-0.681l0.07-0.047c0.736-0.493,1.116-0.703,1.312-0.792
		c0.153,0.367,0.507,0.568,0.821,0.744c0.125,0.07,0.243,0.137,0.339,0.207c0.721,0.529,1.549,1.021,2.466,1.021
		c0.365,0,0.744-0.078,1.134-0.262c0.556-0.261,0.973-0.701,1.376-1.126c0.405-0.428,0.788-0.832,1.281-1.031
		c0.474-0.192,0.938-0.283,1.429-0.379c0.644-0.125,1.311-0.256,1.986-0.632c0.115-0.064,0.252-0.136,0.406-0.217
		c1.055-0.556,2.649-1.395,2.785-2.434c0.019-0.144-0.082-0.275-0.225-0.294c-0.143-0.018-0.275,0.082-0.293,0.226
		c-0.101,0.769-1.667,1.595-2.509,2.038c-0.157,0.083-0.298,0.157-0.416,0.222c-0.604,0.335-1.201,0.453-1.832,0.576
		c-0.493,0.095-1.003,0.196-1.525,0.407c-0.598,0.243-1.038,0.708-1.463,1.156c-0.387,0.409-0.752,0.795-1.218,1.012
		c-1.127,0.53-2.141-0.027-3.069-0.707c-0.122-0.09-0.259-0.167-0.392-0.242c-0.264-0.149-0.514-0.29-0.596-0.493
		c-0.094-0.231-0.042-0.573,0.008-0.902c0.034-0.224,0.067-0.435,0.061-0.634c-0.004-0.145-0.126-0.258-0.27-0.253
		c-0.145,0.005-0.257,0.126-0.253,0.271c0.005,0.15-0.024,0.339-0.055,0.538c-0.033,0.211-0.066,0.438-0.065,0.66
		c-0.253,0.095-0.683,0.331-1.509,0.885l-0.068,0.045c-0.37,0.245-0.691,0.476-0.984,0.707c-0.81,0.637-1.331,1.668-1.569,2.228
		c-0.066,0.155-0.136,0.31-0.205,0.462c-0.301,0.671-0.612,1.365-0.687,2.158c-0.084,0.902-0.037,1.892,0.139,2.941
		C28.223,52.546,28.333,52.636,28.458,52.636z"/>
	<path d="M31.806,63.533c0.02,0.131,0.13,0.224,0.259,0.224c0.013,0,0.026-0.001,0.039-0.004c0.375-0.055,0.772-0.265,1.064-0.542
		c0.404,0.205,0.867,0.323,1.276,0.323c0.188,0,0.364-0.024,0.519-0.075c0.137-0.046,0.211-0.194,0.167-0.331
		c-0.046-0.139-0.193-0.214-0.331-0.167c-0.609,0.2-1.865-0.244-2.103-0.88c-0.051-0.137-0.204-0.205-0.337-0.153
		c-0.135,0.05-0.204,0.202-0.153,0.336c0.094,0.251,0.28,0.47,0.512,0.657c-0.203,0.16-0.458,0.279-0.69,0.313
		C31.884,63.257,31.786,63.391,31.806,63.533z"/>
	<path d="M42.783,77.033c0.27-0.34,0.576-0.724,0.423-1.335c-0.071-0.281-0.255-0.586-0.506-0.835
		c-0.073-0.072-0.164-0.131-0.261-0.192c-0.076-0.049-0.217-0.139-0.24-0.185c-0.016-0.144-0.144-0.237-0.287-0.224
		c-0.144,0.017-0.246,0.152-0.229,0.297c0.029,0.27,0.277,0.427,0.475,0.553c0.066,0.043,0.142,0.091,0.174,0.123
		c0.183,0.182,0.32,0.402,0.367,0.589c0.087,0.345-0.06,0.549-0.325,0.882c-0.086,0.107-0.173,0.218-0.254,0.342
		c-0.421,0.644-0.036,1.017,0.22,1.263c0.096,0.093,0.188,0.181,0.254,0.281c0.208,0.312,0.089,0.707-0.038,1.124
		c-0.075,0.249-0.153,0.506-0.163,0.758c-0.006,0.145,0.106,0.268,0.251,0.272c0.003,0,0.008,0,0.011,0
		c0.141,0,0.256-0.111,0.261-0.253c0.008-0.185,0.073-0.397,0.142-0.626c0.15-0.49,0.318-1.05-0.029-1.565
		c-0.098-0.147-0.22-0.266-0.326-0.367c-0.26-0.25-0.329-0.318-0.145-0.6C42.625,77.23,42.704,77.13,42.783,77.033z"/>
	<path d="M45.115,71.907c-0.39,0.026-0.744,0.175-1.086,0.314c-0.28,0.116-0.544,0.224-0.819,0.27
		c-0.696,0.11-1.303,0.168-2.001,0.09c-1.167-0.133-2.529-0.731-2.528-1.979c0-0.539,0.416-0.977,0.856-1.44
		c0.415-0.438,0.843-0.891,1-1.488c0.413-1.568-0.681-2.595-1.646-3.501l-0.2-0.19c-1.128-1.07-1.842-2.301-2.122-3.653
		c-0.253-1.218-0.048-2.473,0.148-3.687c0.039-0.237,0.078-0.475,0.113-0.711l0.057-0.391c0.172-1.204,0.365-2.567,1.187-3.488
		c0.34-0.383,0.733-0.707,1.149-1.051c0.557-0.461,1.134-0.938,1.575-1.564c0.265-0.376,0.43-0.78,0.589-1.17
		c0.33-0.81,0.591-1.45,1.612-1.571c0.94-0.112,1.485,0.597,2.062,1.346c0.153,0.197,0.309,0.4,0.472,0.583
		c0.096,0.108,0.262,0.118,0.37,0.021c0.107-0.096,0.118-0.261,0.021-0.37c-0.148-0.168-0.294-0.355-0.448-0.554
		c-0.611-0.792-1.303-1.692-2.539-1.546c-1.328,0.157-1.688,1.04-2.035,1.894c-0.149,0.364-0.302,0.74-0.533,1.067
		c-0.4,0.569-0.925,1.002-1.481,1.461c-0.286,0.238-0.579,0.48-0.854,0.743c-0.068-0.013-0.142-0.027-0.228-0.044
		c-0.693-0.134-2.135-0.412-2.546-0.622c-0.115-0.059-0.237-0.115-0.359-0.172c-0.251-0.119-0.511-0.24-0.719-0.384
		c-0.271-0.188-0.518-0.462-0.756-0.727l-0.089-0.097c-0.287-0.317-0.507-0.677-0.739-1.06c-0.119-0.196-0.239-0.393-0.369-0.585
		c-0.08-0.12-0.243-0.151-0.364-0.07c-0.12,0.081-0.151,0.244-0.07,0.364c0.125,0.185,0.239,0.375,0.355,0.564
		c0.234,0.386,0.476,0.786,0.798,1.14l0.087,0.096c0.174,0.193,0.365,0.401,0.575,0.587c-0.379,0.305-0.917,0.772-1.119,0.955
		c-0.137,0.124-0.256,0.275-0.371,0.423c-0.127,0.16-0.246,0.312-0.371,0.406c-0.114,0.087-0.138,0.25-0.051,0.366
		c0.051,0.068,0.13,0.104,0.209,0.104c0.056,0,0.111-0.017,0.158-0.052c0.179-0.135,0.325-0.322,0.467-0.501
		c0.107-0.136,0.207-0.264,0.312-0.358c0.245-0.222,0.865-0.754,1.208-1.022c0.202,0.121,0.415,0.229,0.628,0.327
		c0.117,0.056,0.233,0.108,0.343,0.166c0.426,0.217,1.544,0.447,2.585,0.65c-0.43,0.515-0.696,1.121-0.876,1.754
		c-0.331,0.139-0.802,0.457-1.265,0.776l-0.159,0.111c-0.116,0.078-0.234,0.154-0.352,0.234c-0.37,0.24-0.751,0.493-1.102,0.798
		c-0.435,0.378-0.847,0.781-1.245,1.188c-0.104-0.007-0.258-0.012-0.479-0.018c-0.086-0.001-0.155-0.003-0.187-0.005
		c-1.306-0.067-2.324-0.338-3.115-0.827c-0.424-0.264-0.885-0.664-1.37-1.194l-0.162-0.174c-0.363-0.387-0.859-0.914-0.978-1.34
		c-0.039-0.142-0.185-0.221-0.323-0.182c-0.14,0.039-0.221,0.184-0.182,0.322c0.154,0.549,0.701,1.132,1.101,1.559l0.158,0.169
		c0.518,0.565,1.015,0.997,1.479,1.285c0.868,0.536,1.969,0.833,3.364,0.904c0.033,0.001,0.108,0.004,0.199,0.008
		c-0.034,0.032-0.066,0.068-0.1,0.103c-0.163,0.169-0.327,0.339-0.492,0.508c-0.691,0.708-0.996,1.501-1.264,2.553
		c-0.291,1.136-0.384,2.528-0.242,3.633c0.017,0.134,0.129,0.229,0.26,0.229c0.011,0,0.021,0,0.033-0.002
		c0.144-0.018,0.244-0.149,0.226-0.293c-0.134-1.044-0.045-2.36,0.229-3.438c0.247-0.967,0.522-1.692,1.131-2.315
		c0.166-0.171,0.331-0.341,0.494-0.513c0.574-0.596,1.169-1.213,1.805-1.766c0.324-0.279,0.69-0.522,1.045-0.756
		c0.12-0.078,0.239-0.157,0.359-0.237l0.163-0.112c0.196-0.136,0.52-0.36,0.803-0.531c-0.084,0.42-0.144,0.84-0.201,1.243
		l-0.055,0.388c-0.035,0.233-0.075,0.468-0.112,0.703c-0.206,1.262-0.418,2.566-0.145,3.878c0.303,1.46,1.068,2.779,2.275,3.927
		l0.203,0.191c0.9,0.845,1.83,1.72,1.498,2.987c-0.124,0.468-0.488,0.854-0.874,1.26c-0.491,0.519-0.998,1.056-0.999,1.803
		c0,0.393,0.097,0.73,0.264,1.025c-0.076,0.016-0.145,0.062-0.182,0.138c-0.411,0.859-0.85,1.331-1.513,1.63
		c-0.552,0.247-1.438,0.306-1.964-0.024c-0.124-0.076-0.284-0.039-0.362,0.083c-0.077,0.123-0.039,0.284,0.083,0.361
		c0.348,0.219,0.785,0.311,1.219,0.311c0.094,0,0.187-0.006,0.28-0.015c-0.054,0.749,0.041,1.307,0.29,1.695
		c0.235,0.365,0.632,0.58,0.97,0.715c-0.012,0.062-0.026,0.123-0.042,0.188c-0.064,0.269-0.138,0.57-0.038,0.934
		c0.09,0.327,0.507,1.156,1.003,1.256c0.017,0.005,0.034,0.005,0.051,0.005c0.123,0,0.232-0.086,0.257-0.209
		c0.029-0.143-0.063-0.28-0.206-0.309c-0.146-0.029-0.503-0.526-0.601-0.882c-0.064-0.232-0.015-0.438,0.042-0.673
		c0.034-0.144,0.071-0.294,0.083-0.461c0.01-0.117-0.062-0.229-0.175-0.268c-0.293-0.103-0.707-0.271-0.904-0.58
		c-0.196-0.308-0.261-0.814-0.196-1.507c0.15-0.04,0.296-0.084,0.423-0.142c0.772-0.348,1.3-0.906,1.762-1.863
		c0.59,0.648,1.564,0.99,2.445,1.091c0.244,0.027,0.477,0.039,0.703,0.039c0.519,0,0.994-0.061,1.44-0.132
		c0.335-0.054,0.641-0.18,0.936-0.303c0.317-0.13,0.617-0.253,0.923-0.275c0.144-0.009,0.252-0.136,0.242-0.279
		C45.385,72.005,45.259,71.902,45.115,71.907z"/>
	<path d="M36.09,67.899c-0.125-0.075-0.285-0.035-0.36,0.089c-0.571,0.946,0.022,2.253,0.464,2.875
		c0.051,0.072,0.132,0.11,0.213,0.11c0.052,0,0.106-0.016,0.152-0.048c0.118-0.083,0.146-0.246,0.062-0.365
		c-0.397-0.561-0.843-1.638-0.442-2.301C36.253,68.136,36.214,67.975,36.09,67.899z"/>
	<path d="M33.28,68.21c-0.581-0.268-1.336-0.511-2.034-0.045c-0.121,0.08-0.153,0.243-0.072,0.363
		c0.08,0.12,0.243,0.153,0.363,0.073c0.479-0.322,1.041-0.139,1.525,0.084c0.036,0.017,0.073,0.023,0.108,0.023
		c0.101,0,0.195-0.058,0.239-0.152C33.47,68.424,33.411,68.269,33.28,68.21z"/>
	<path d="M31.147,66.244c-0.055-0.134-0.208-0.197-0.341-0.143c-0.761,0.314-1.198,0.895-1.262,1.677
		c-0.012,0.144,0.095,0.271,0.239,0.283c0.008,0,0.015,0,0.022,0c0.135,0,0.25-0.103,0.26-0.24c0.048-0.582,0.364-0.997,0.939-1.235
		C31.14,66.53,31.204,66.376,31.147,66.244z"/>
	<path d="M28.075,63.616c-0.499,0.237-0.838,0.729-0.955,1.388c-0.026,0.143,0.07,0.278,0.212,0.303
		c0.016,0.003,0.031,0.005,0.046,0.005c0.125,0,0.234-0.089,0.256-0.216c0.05-0.282,0.204-0.787,0.665-1.007
		c0.13-0.062,0.186-0.218,0.125-0.349C28.362,63.609,28.206,63.554,28.075,63.616z"/>
	<path d="M35.405,33.322c0.032,0.013,0.063,0.018,0.095,0.018c0.105,0,0.205-0.064,0.244-0.167c0.15-0.387,0.419-0.738,0.704-1.11
		c0.223-0.291,0.452-0.591,0.627-0.917c0.131-0.245,0.25-0.501,0.364-0.748c0.106-0.233,0.207-0.452,0.319-0.663
		c0.049-0.094,0.106-0.188,0.162-0.282c0.183-0.306,0.392-0.654,0.416-1.063c0.032-0.522-0.223-0.688-0.392-0.799
		c-0.103-0.068-0.149-0.098-0.174-0.207c-0.061-0.258,0.105-0.395,0.496-0.649c0.291-0.187,0.621-0.4,0.661-0.771
		c0.032-0.284-0.113-0.578-0.456-0.924c-0.09-0.093-0.189-0.18-0.289-0.27c-0.33-0.297-0.616-0.554-0.609-0.937
		c0.007-0.433,0.352-0.769,0.735-1.102c0.893-0.775,1.72-1.195,2.21-1.125c0.207,0.03,0.368,0.141,0.476,0.329
		c0.161,0.279,0.182,0.699,0.053,1.021c-0.053,0.135,0.012,0.288,0.146,0.341c0.134,0.054,0.286-0.012,0.341-0.145
		c0.19-0.476,0.157-1.057-0.087-1.477c-0.189-0.33-0.485-0.533-0.854-0.586c-0.889-0.127-2.028,0.728-2.627,1.249
		c-0.437,0.38-0.904,0.84-0.916,1.488c-0.011,0.623,0.412,1.002,0.784,1.335c0.091,0.082,0.181,0.163,0.265,0.248
		c0.294,0.299,0.314,0.449,0.309,0.5c-0.015,0.124-0.223,0.258-0.425,0.39c-0.368,0.237-0.873,0.563-0.721,1.208
		c0.073,0.312,0.269,0.44,0.397,0.524c0.129,0.085,0.169,0.111,0.156,0.331c-0.017,0.283-0.175,0.546-0.343,0.826
		c-0.061,0.102-0.122,0.204-0.176,0.306c-0.119,0.224-0.227,0.46-0.333,0.688c-0.11,0.24-0.224,0.488-0.348,0.719
		c-0.155,0.289-0.362,0.56-0.582,0.846c-0.294,0.384-0.599,0.782-0.775,1.237C35.204,33.118,35.271,33.269,35.405,33.322z"/>
	<path d="M28.648,42.3c0.021,0.006,0.042,0.008,0.063,0.008c0.118,0,0.225-0.08,0.253-0.199c0.144-0.586,0.515-1.042,1.019-1.253
		c0.133-0.057,0.196-0.209,0.141-0.343c-0.056-0.133-0.208-0.196-0.342-0.141c-0.658,0.276-1.141,0.863-1.325,1.611
		C28.422,42.123,28.508,42.265,28.648,42.3z"/>
	<path d="M40.916,20.743c0.046,0,0.093-0.012,0.136-0.038c0.123-0.075,0.162-0.237,0.087-0.36c-0.102-0.167-0.141-0.317-0.106-0.413
		c0.039-0.104,0.176-0.167,0.285-0.201c0.137-0.045,0.213-0.192,0.169-0.33c-0.044-0.138-0.191-0.214-0.33-0.169
		c-0.319,0.103-0.525,0.276-0.616,0.518c-0.095,0.253-0.043,0.554,0.149,0.869C40.741,20.698,40.827,20.743,40.916,20.743z"/>
</g>
</svg>
