<?xml version="1.0" encoding="utf-8"?>
<!-- Generator: Adobe Illustrator 16.0.0, SVG Export Plug-In . SVG Version: 6.00 Build 0)  -->
<!DOCTYPE svg PUBLIC "-//W3C//DTD SVG 1.1//EN" "http://www.w3.org/Graphics/SVG/1.1/DTD/svg11.dtd">
<svg version="1.1" id="Layer_1" xmlns="http://www.w3.org/2000/svg" xmlns:xlink="http://www.w3.org/1999/xlink" x="0px" y="0px"
	 width="55px" height="55px" viewBox="0 0 55 55" enable-background="new 0 0 55 55" xml:space="preserve">
<path fill="#222222" d="M33.783,1.717l20.631-1.716c0.154-0.013,0.314,0.048,0.426,0.159c0.115,0.111,0.17,0.269,0.158,0.428
	l-1.719,20.609c-0.018,0.21-0.156,0.392-0.354,0.464c-0.198,0.073-0.422,0.024-0.571-0.124l-5.996-5.994l-6.922,6.913
	c-1.906,1.908-4.369,1.276-6.281-0.631c-1.908-1.906-2.541-4.367-0.633-6.276l6.92-6.913l-6-5.991
	c-0.146-0.151-0.195-0.375-0.123-0.57C33.391,1.873,33.572,1.738,33.783,1.717z"/>
<path fill="#222222" d="M1.72,21.197L0.003,0.588C-0.013,0.429,0.047,0.271,0.159,0.16c0.113-0.111,0.27-0.171,0.428-0.159
	l20.631,1.716c0.21,0.021,0.392,0.158,0.464,0.357c0.073,0.195,0.024,0.42-0.127,0.57l-5.996,5.993l6.918,6.911
	c1.908,1.909,1.277,4.37-0.635,6.276c-1.908,1.906-4.371,2.539-6.281,0.631l-6.918-6.91l-5.998,5.991
	c-0.148,0.147-0.375,0.196-0.571,0.124C1.875,21.589,1.737,21.407,1.72,21.197z"/>
<path fill="#222222" d="M33.783,53.279l20.631,1.719c0.154,0.013,0.314-0.046,0.426-0.158c0.115-0.111,0.17-0.27,0.158-0.428
	l-1.719-20.61c-0.018-0.21-0.156-0.392-0.355-0.464s-0.422-0.023-0.57,0.124l-5.996,5.993l-6.922-6.913
	c-1.906-1.909-4.369-1.276-6.281,0.632c-1.907,1.91-2.541,4.368-0.633,6.277l6.92,6.914l-6,5.99
	c-0.146,0.149-0.194,0.373-0.123,0.569C33.391,53.126,33.572,53.264,33.783,53.279z"/>
<path fill="#222222" d="M1.72,33.801l-1.717,20.61c-0.016,0.159,0.044,0.315,0.156,0.429c0.113,0.114,0.27,0.171,0.428,0.158
	l20.631-1.719c0.21-0.018,0.392-0.154,0.464-0.354c0.073-0.197,0.024-0.42-0.127-0.57l-5.996-5.99l6.918-6.914
	c1.908-1.906,1.277-4.367-0.635-6.276c-1.908-1.909-4.371-2.54-6.281-0.633l-6.918,6.913l-5.998-5.993
	c-0.148-0.147-0.375-0.194-0.571-0.126C1.875,33.407,1.737,33.59,1.72,33.801z"/>
</svg>
