<?xml version="1.0" encoding="utf-8"?>
<!-- Generator: Adobe Illustrator 16.0.0, SVG Export Plug-In . SVG Version: 6.00 Build 0)  -->
<!DOCTYPE svg PUBLIC "-//W3C//DTD SVG 1.1//EN" "http://www.w3.org/Graphics/SVG/1.1/DTD/svg11.dtd">
<svg version="1.1" id="Layer_1" xmlns="http://www.w3.org/2000/svg" xmlns:xlink="http://www.w3.org/1999/xlink" x="0px" y="0px"
	 width="55px" height="55px" viewBox="22.5 22.5 55 55" enable-background="new 22.5 22.5 55 55" xml:space="preserve">
<path d="M56.283,24.217l20.631-1.716c0.154-0.013,0.314,0.048,0.426,0.159c0.115,0.111,0.17,0.269,0.158,0.428l-1.719,20.609
	c-0.018,0.21-0.156,0.392-0.354,0.464c-0.199,0.073-0.422,0.024-0.572-0.124l-5.996-5.994l-6.922,6.913
	c-1.906,1.908-4.369,1.276-6.281-0.631c-1.908-1.906-2.541-4.367-0.633-6.276l6.92-6.913l-6-5.991
	c-0.146-0.151-0.195-0.375-0.123-0.57C55.891,24.373,56.072,24.238,56.283,24.217z"/>
<path d="M24.22,43.697l-1.717-20.609c-0.016-0.159,0.044-0.317,0.156-0.428c0.113-0.111,0.27-0.171,0.428-0.159l20.631,1.716
	c0.21,0.021,0.392,0.158,0.464,0.357c0.073,0.195,0.024,0.42-0.127,0.57l-5.997,5.993l6.918,6.911
	c1.909,1.909,1.278,4.37-0.634,6.276c-1.908,1.906-4.371,2.539-6.282,0.631l-6.917-6.91l-5.998,5.991
	c-0.148,0.148-0.375,0.197-0.571,0.124C24.375,44.089,24.237,43.907,24.22,43.697z"/>
<path d="M56.283,75.78l20.631,1.718c0.154,0.013,0.314-0.046,0.426-0.158c0.115-0.111,0.17-0.27,0.158-0.428l-1.719-20.61
	c-0.018-0.21-0.156-0.392-0.355-0.464s-0.422-0.023-0.57,0.124l-5.996,5.993l-6.922-6.913c-1.906-1.909-4.369-1.276-6.281,0.632
	c-1.908,1.91-2.541,4.368-0.633,6.277l6.92,6.914l-6,5.99c-0.146,0.15-0.195,0.373-0.123,0.57
	C55.891,75.626,56.072,75.763,56.283,75.78z"/>
<path d="M24.22,56.301l-1.717,20.61c-0.016,0.159,0.044,0.316,0.156,0.429c0.113,0.114,0.27,0.171,0.428,0.158l20.631-1.718
	c0.21-0.018,0.392-0.155,0.464-0.354c0.073-0.197,0.024-0.42-0.127-0.57l-5.997-5.991l6.918-6.914
	c1.909-1.906,1.278-4.367-0.634-6.276c-1.908-1.909-4.371-2.54-6.282-0.633l-6.917,6.913l-5.998-5.993
	c-0.148-0.147-0.375-0.195-0.571-0.126C24.375,55.907,24.237,56.09,24.22,56.301z"/>
</svg>
