<?xml version="1.0" encoding="utf-8"?>
<!-- Generator: Adobe Illustrator 16.0.0, SVG Export Plug-In . SVG Version: 6.00 Build 0)  -->
<!DOCTYPE svg PUBLIC "-//W3C//DTD SVG 1.1//EN" "http://www.w3.org/Graphics/SVG/1.1/DTD/svg11.dtd">
<svg version="1.1" id="Layer_1" xmlns="http://www.w3.org/2000/svg" xmlns:xlink="http://www.w3.org/1999/xlink" x="0px" y="0px"
	 width="101px" height="50px" viewBox="0 0 101 50" enable-background="new 0 0 101 50" xml:space="preserve">
<path fill="#222222" d="M5.031,28.359c3.425,1.66,14.46,7.849,29.727,8.447c15.267,0.602,31.173-5.457,35.548-7.852
	s13.305-8.359,18.807-13.688c0,0-10.322,12.752-29.061,19.172c0,0-19.047,6.857-37.477,2.75c0,0-17.819-4.931-19.548-6.369
	C1.301,29.384,1.608,26.7,5.031,28.359z M99.369,9.325c-0.443-4.152,1.484-14.093-6.525-6.081
	c-8.008,8.009-14.535,14.388-24.918,18.395c-4.785,1.846-11.209,3.721-17.481,5.137l-5.42,4.062l3.836-3.714
	c-6.771,1.447-13.193,2.301-16.978,1.932c-6.318-0.623-10.511,2.426-12.004,4.25c4.506,1.324,9.675,2.409,14.915,2.613
	c0.691,0.029,1.4,0.041,2.11,0.041c14.029,0,28.521-5.344,32.978-7.782c4.291-2.347,13.832-8.469,19.234-13.53
	c4.377-4.103,0.16,0.974-0.961,2.299c-1.127,1.326-11.145,12.719-27.811,18.34c-0.104,0.033-11.569,4.105-25.166,4.105
	c-4.523,0-8.828-0.447-12.792-1.332l-0.025-0.007c-0.175-0.042-1.551-0.392-3.538-0.937c0.939,2.394,4.123,9.045,11.13,11.22
	c8.602,2.672,18.245,1.038,22.396,0c0,0-8.751,0.151-15.425-4.597c0,0,13.793,4.3,22.396,2.522
	c8.604-1.784,17.799-6.229,25.064-12.017c0,0-10.828,2.078-14.83,0c0,0,14.684-0.445,19.209-4.006
	C93.291,26.68,99.814,13.477,99.369,9.325z"/>
</svg>
