<?xml version="1.0" encoding="utf-8"?>
<!-- Generator: Adobe Illustrator 16.0.0, SVG Export Plug-In . SVG Version: 6.00 Build 0)  -->
<!DOCTYPE svg PUBLIC "-//W3C//DTD SVG 1.1//EN" "http://www.w3.org/Graphics/SVG/1.1/DTD/svg11.dtd">
<svg version="1.1" id="Layer_1" xmlns="http://www.w3.org/2000/svg" xmlns:xlink="http://www.w3.org/1999/xlink" x="0px" y="0px"
	 width="98px" height="100px" viewBox="0 0 98 100" enable-background="new 0 0 98 100" xml:space="preserve">
<path fill="#FF9C08" d="M75.042,32.605h10.691c3.322,0,6.043,2.719,6.043,6.042v27.45c0,3.324-2.721,6.042-6.043,6.042h-9.318
	c-3.322,0-6.043,2.72-6.043,6.041v9.376c0,3.322-2.719,6.041-6.041,6.041H20.965c-3.323,0-6.042-2.719-6.042-6.041V39.788
	c4.026-0.18,8.117-1.578,11.06-3.67c2.125,2.742,6.031,5.904,12.737,5.904c0.229,0,0.46-0.004,0.696-0.012
	c6.829-0.225,11.361-4.458,13.576-7.167c2.476,0.938,6.563,2.188,10.778,2.188c4.736,0,8.584-1.605,11.271-4.605V32.605"/>
<path fill="#FFFFFF" d="M4.99,25.018c0.23-6.772,2.743-9.792,8.153-9.792c3.022,0,5.696,1.027,5.713,1.036
	c0.966,0.383,2.037,0.215,2.872-0.448c0.836-0.665,1.332-1.746,1.332-2.896c0-8.948,9.059-9.4,10.875-9.4
	c5.713,0,11.88,3.166,11.88,8.28c0,1.622,0.98,3.036,2.378,3.437c1.396,0.399,2.86-0.318,3.548-1.742
	c1.827-3.78,5.365-5.947,9.704-5.947c4.164,0,8.181,2.032,10.742,5.433c1.843,2.445,3.448,7.139,1.898,12.327
	c-1.429,4.798-4.302,7.037-9.053,7.037c-5.397,0-10.904-2.998-10.953-3.026c-1.498-0.83-3.308-0.208-4.136,1.422
	c-0.037,0.072-3.731,7.197-10.55,7.449c-7.72,0.287-9.919-5.992-10.129-6.659c-0.379-1.309-1.401-2.252-2.616-2.417
	c-0.128-0.018-0.255-0.026-0.381-0.026c-1.079,0-2.096,0.624-2.675,1.669c-1.275,2.301-5.888,4.862-10.466,4.862
	c-1.826,0-4.361-0.417-6.07-2.414C5.559,31.457,4.865,28.705,4.99,25.018z"/>
<path fill="#FFFFFF" d="M80.413,64.769h-7.191c-1.502,0-2.72-1.218-2.72-2.719V42.999c0-1.502,1.218-2.719,2.72-2.719h7.031
	c1.979,0,3.205,0.814,3.883,1.498c1.406,1.417,1.467,3.22,1.463,3.567v13.952c0.01,0.526-0.062,2.496-1.494,3.981
	C83.449,63.958,82.274,64.769,80.413,64.769z M75.94,59.33h4.222c0-0.002,0-0.003,0-0.004V45.717H75.94V59.33z"/>
<g>
	<path fill="none" d="M85.715,32.589H75.024v-0.178c-2.688,3-6.535,4.606-11.271,4.606c-4.216,0-8.304-1.251-10.779-2.189
		c-2.215,2.709-6.747,6.943-13.576,7.167c-0.236,0.008-0.467,0.012-0.696,0.012c-6.706,0-10.612-3.162-12.737-5.904
		c-2.943,2.091-7.034,3.49-11.06,3.669V87.54c0,3.322,2.719,6.041,6.042,6.041h43.366c3.322,0,6.041-2.719,6.041-6.041v-9.376
		c0-3.322,2.722-6.041,6.043-6.041h9.318c3.322,0,6.043-2.718,6.043-6.042v-27.45C91.758,35.307,89.037,32.589,85.715,32.589z"/>
	<path fill="none" d="M24.064,29.623c0.555-0.891,1.529-1.422,2.562-1.422c0.121,0,0.242,0.007,0.365,0.022
		c1.164,0.142,2.142,0.945,2.506,2.06c0.201,0.568,2.307,5.918,9.7,5.674c6.531-0.215,10.066-6.286,10.104-6.347
		c0.793-1.389,2.526-1.919,3.961-1.212c0.047,0.024,5.319,2.578,10.488,2.578c4.549,0,7.303-1.907,8.671-5.996
		c1.484-4.42-0.054-8.42-1.819-10.503c-2.453-2.898-6.299-4.629-10.287-4.629c-4.155,0-7.543,1.847-9.293,5.067
		c-0.659,1.214-2.061,1.825-3.398,1.485c-1.339-0.341-2.277-1.546-2.277-2.928c0-4.358-5.906-7.055-11.377-7.055
		c-1.739,0-10.414,0.386-10.414,8.01c0,0.98-0.475,1.9-1.276,2.466c-0.8,0.566-1.825,0.709-2.751,0.382
		c-0.016-0.007-2.576-0.882-5.47-0.882c-5.181,0-7.588,2.573-7.808,8.343c-0.12,3.141,0.545,5.486,1.978,6.973
		c1.636,1.701,4.064,2.057,5.813,2.057C18.426,33.766,22.843,31.583,24.064,29.623z"/>
	<path fill="#FFFFFF" d="M85.715,26.547h-7.457c1.711-5.512,0.539-11.744-3.043-15.975c-3.587-4.236-9.158-6.766-14.897-6.766
		c-4.109,0-7.851,1.29-10.733,3.6c-3.045-4.6-9.469-7.03-15.613-7.03c-7.055,0-14.166,3.225-16.001,10.323
		c-1.147-0.196-2.492-0.347-3.91-0.347c-8.456,0-13.503,5.16-13.846,14.155c-0.185,4.844,1.047,8.677,3.662,11.394
		c1.359,1.413,3.049,2.442,4.988,3.094v48.546c0,6.663,5.421,12.083,12.083,12.083h43.365c6.662,0,12.084-5.42,12.084-12.083v-9.373
		c0,0,0,0.001,0.002,0.001c0.005,0,0.012-0.007,0.017-0.008l9.304,0.004c6.662,0,12.084-5.419,12.084-12.083V38.63
		C97.799,31.968,92.378,26.547,85.715,26.547z M8.229,31.709c-1.433-1.487-2.098-3.832-1.978-6.973
		c0.22-5.77,2.627-8.343,7.808-8.343c2.894,0,5.454,0.875,5.47,0.882c0.926,0.327,1.951,0.184,2.751-0.382
		c0.801-0.566,1.276-1.486,1.276-2.466c0-7.624,8.675-8.01,10.414-8.01c5.471,0,11.377,2.697,11.377,7.055
		c0,1.382,0.938,2.587,2.277,2.928c1.338,0.34,2.739-0.271,3.398-1.485c1.75-3.22,5.138-5.067,9.293-5.067
		c3.988,0,7.834,1.731,10.287,4.629c1.766,2.083,3.304,6.083,1.819,10.503c-1.368,4.089-4.122,5.996-8.671,5.996
		c-5.169,0-10.441-2.554-10.488-2.578c-1.435-0.707-3.168-0.177-3.961,1.212c-0.037,0.061-3.573,6.132-10.104,6.347
		c-7.393,0.244-9.499-5.106-9.7-5.674c-0.364-1.115-1.342-1.918-2.506-2.06c-0.123-0.015-0.244-0.022-0.365-0.022
		c-1.033,0-2.007,0.531-2.562,1.422c-1.222,1.96-5.639,4.143-10.023,4.143C12.292,33.766,9.865,33.41,8.229,31.709z M91.758,66.081
		c0,3.324-2.721,6.042-6.043,6.042h-9.318c-3.321,0-6.043,2.719-6.043,6.041v9.376c0,3.322-2.719,6.041-6.041,6.041H20.947
		c-3.323,0-6.042-2.719-6.042-6.041V39.772c4.026-0.179,8.117-1.578,11.06-3.669c2.125,2.742,6.031,5.904,12.737,5.904
		c0.229,0,0.46-0.004,0.696-0.012c6.829-0.224,11.361-4.458,13.576-7.167c2.476,0.938,6.563,2.189,10.779,2.189
		c4.736,0,8.583-1.606,11.271-4.606v0.178h10.691c3.321,0,6.043,2.718,6.043,6.042V66.081z"/>
</g>
<path opacity="0.3" fill="#FFFFFF" d="M28.018,81.22c0,1.975-1.6,3.574-3.574,3.574l0,0c-1.974,0-3.574-1.6-3.574-3.574l0,0
	c0-1.974,1.601-3.574,3.574-3.574l0,0C26.418,77.646,28.018,79.246,28.018,81.22L28.018,81.22z"/>
<path opacity="0.3" fill="#FFFFFF" d="M39.018,51.22c0,1.975-1.6,3.574-3.574,3.574l0,0c-1.974,0-3.574-1.6-3.574-3.574l0,0
	c0-1.974,1.601-3.574,3.574-3.574l0,0C37.418,47.646,39.018,49.246,39.018,51.22L39.018,51.22z"/>
<path opacity="0.3" fill="#FFFFFF" d="M65.018,81.22c0,1.975-1.6,3.574-3.574,3.574l0,0c-1.974,0-3.574-1.6-3.574-3.574l0,0
	c0-1.974,1.601-3.574,3.574-3.574l0,0C63.418,77.646,65.018,79.246,65.018,81.22L65.018,81.22z"/>
<path opacity="0.3" fill="#FFFFFF" d="M58.018,59.22c0,1.975-1.6,3.574-3.574,3.574l0,0c-1.974,0-3.574-1.6-3.574-3.574l0,0
	c0-1.974,1.601-3.574,3.574-3.574l0,0C56.418,55.646,58.018,57.246,58.018,59.22L58.018,59.22z"/>
<path opacity="0.3" fill="#FFFFFF" d="M23.165,61.22c0,0.95-0.771,1.72-1.721,1.72l0,0c-0.949,0-1.72-0.77-1.72-1.72l0,0
	c0-0.95,0.771-1.72,1.72-1.72l0,0C22.394,59.5,23.165,60.27,23.165,61.22L23.165,61.22z"/>
<path opacity="0.3" fill="#FFFFFF" d="M45.165,71.22c0,2.055-1.667,3.719-3.721,3.719l0,0c-2.053,0-3.719-1.664-3.719-3.719l0,0
	c0-2.055,1.667-3.719,3.719-3.719l0,0C43.498,67.501,45.165,69.165,45.165,71.22L45.165,71.22z"/>
<path opacity="0.3" fill="#FFFFFF" d="M43.877,86.22c0,1.344-1.09,2.433-2.434,2.433l0,0c-1.343,0-2.433-1.089-2.433-2.433l0,0
	c0-1.344,1.09-2.433,2.433-2.433l0,0C42.788,83.787,43.877,84.876,43.877,86.22L43.877,86.22z"/>
<path opacity="0.3" fill="#FFFFFF" d="M63.999,42.22c0,1.411-1.145,2.554-2.555,2.554l0,0c-1.409,0-2.554-1.143-2.554-2.554l0,0
	c0-1.411,1.145-2.554,2.554-2.554l0,0C62.854,39.666,63.999,40.809,63.999,42.22L63.999,42.22z"/>
<path opacity="0.3" fill="#FFFFFF" d="M23.109,46.601c0,0.709-0.575,1.283-1.285,1.283l0,0c-0.708,0-1.283-0.573-1.283-1.283l0,0
	c0-0.709,0.575-1.284,1.283-1.284l0,0C22.534,45.317,23.109,45.891,23.109,46.601L23.109,46.601z"/>
<path opacity="0.3" fill="#FFFFFF" d="M53.075,49.444c0,0.709-0.574,1.283-1.284,1.283l0,0c-0.708,0-1.283-0.573-1.283-1.283l0,0
	c0-0.709,0.575-1.283,1.283-1.283l0,0C52.5,48.161,53.075,48.734,53.075,49.444L53.075,49.444z"/>
<path opacity="0.3" fill="#FFFFFF" d="M53.497,74.723c0,0.71-0.575,1.283-1.284,1.283l0,0c-0.708,0-1.283-0.573-1.283-1.283l0,0
	c0-0.709,0.575-1.282,1.283-1.282l0,0C52.921,73.44,53.497,74.014,53.497,74.723L53.497,74.723z"/>
<path opacity="0.3" fill="#FFFFFF" d="M26.061,70.771c0,0.71-0.575,1.283-1.284,1.283l0,0c-0.708,0-1.283-0.573-1.283-1.283l0,0
	c0-0.709,0.575-1.283,1.283-1.283l0,0C25.486,69.487,26.061,70.062,26.061,70.771L26.061,70.771z"/>
<path opacity="0.3" fill="#FFFFFF" d="M65.877,68.22c0,1.344-1.09,2.433-2.434,2.433l0,0c-1.343,0-2.433-1.089-2.433-2.433l0,0
	c0-1.344,1.09-2.433,2.433-2.433l0,0C64.788,65.787,65.877,66.876,65.877,68.22L65.877,68.22z"/>
</svg>
